<mxfile host="Electron" modified="2023-08-29T01:28:01.978Z" agent="Mozilla/5.0 (Windows NT 10.0; Win64; x64) AppleWebKit/537.36 (KHTML, like Gecko) draw.io/21.6.8 Chrome/114.0.5735.289 Electron/25.5.0 Safari/537.36" etag="O812hJEAhvYzMhO_Sazg" version="21.6.8" type="device">
  <diagram name="第 1 页" id="67Zc_q8xRpBcF1T4bI5i">
    <mxGraphModel dx="1925" dy="820" grid="1" gridSize="10" guides="1" tooltips="1" connect="1" arrows="1" fold="1" page="1" pageScale="1" pageWidth="827" pageHeight="1169" math="0" shadow="0">
      <root>
        <mxCell id="0" />
        <mxCell id="1" parent="0" />
        <mxCell id="oL3jrjro8VqfyhITFRKU-146" value="" style="rounded=0;whiteSpace=wrap;html=1;fillColor=#f5f5f5;fontColor=#333333;strokeColor=#666666;" parent="1" vertex="1">
          <mxGeometry x="-545" y="2780" width="3865" height="1250" as="geometry" />
        </mxCell>
        <mxCell id="oL3jrjro8VqfyhITFRKU-76" value="" style="rounded=0;whiteSpace=wrap;html=1;fillColor=#f5f5f5;fontColor=#333333;strokeColor=#666666;" parent="1" vertex="1">
          <mxGeometry x="-550" y="1410" width="1840" height="1250" as="geometry" />
        </mxCell>
        <mxCell id="oL3jrjro8VqfyhITFRKU-74" value="" style="rounded=0;whiteSpace=wrap;html=1;fillColor=#f5f5f5;fontColor=#333333;strokeColor=#666666;" parent="1" vertex="1">
          <mxGeometry x="-550" y="10" width="1840" height="1250" as="geometry" />
        </mxCell>
        <mxCell id="oL3jrjro8VqfyhITFRKU-51" value="" style="rounded=1;whiteSpace=wrap;html=1;fillColor=#d5e8d4;strokeColor=#82b366;" parent="1" vertex="1">
          <mxGeometry x="750" y="700" width="513" height="320" as="geometry" />
        </mxCell>
        <mxCell id="oL3jrjro8VqfyhITFRKU-19" value="" style="rounded=1;whiteSpace=wrap;html=1;fillColor=#d5e8d4;strokeColor=#82b366;" parent="1" vertex="1">
          <mxGeometry x="-413" y="690" width="513" height="320" as="geometry" />
        </mxCell>
        <mxCell id="oL3jrjro8VqfyhITFRKU-35" value="" style="rounded=1;whiteSpace=wrap;html=1;fillColor=#d5e8d4;strokeColor=#82b366;" parent="1" vertex="1">
          <mxGeometry x="180" y="700" width="513" height="320" as="geometry" />
        </mxCell>
        <mxCell id="oL3jrjro8VqfyhITFRKU-9" style="rounded=0;orthogonalLoop=1;jettySize=auto;html=1;exitX=0.25;exitY=1;exitDx=0;exitDy=0;entryX=0.25;entryY=0;entryDx=0;entryDy=0;" parent="1" source="oL3jrjro8VqfyhITFRKU-1" target="oL3jrjro8VqfyhITFRKU-5" edge="1">
          <mxGeometry relative="1" as="geometry" />
        </mxCell>
        <mxCell id="oL3jrjro8VqfyhITFRKU-1" value="" style="rounded=1;whiteSpace=wrap;html=1;fillColor=#d5e8d4;strokeColor=#82b366;" parent="1" vertex="1">
          <mxGeometry x="110" y="120" width="940" height="70" as="geometry" />
        </mxCell>
        <mxCell id="oL3jrjro8VqfyhITFRKU-2" value="&lt;b&gt;&lt;font style=&quot;font-size: 18px;&quot;&gt;1&lt;/font&gt;&lt;/b&gt;" style="rounded=1;whiteSpace=wrap;html=1;fillColor=#ffe6cc;strokeColor=#d79b00;" parent="1" vertex="1">
          <mxGeometry x="110" y="120" width="150" height="70" as="geometry" />
        </mxCell>
        <mxCell id="oL3jrjro8VqfyhITFRKU-3" value="&lt;b&gt;&lt;font style=&quot;font-size: 18px;&quot;&gt;10&lt;/font&gt;&lt;/b&gt;" style="rounded=1;whiteSpace=wrap;html=1;fillColor=#ffe6cc;strokeColor=#d79b00;" parent="1" vertex="1">
          <mxGeometry x="460" y="120" width="150" height="70" as="geometry" />
        </mxCell>
        <mxCell id="oL3jrjro8VqfyhITFRKU-4" value="&lt;b&gt;&lt;font style=&quot;font-size: 18px;&quot;&gt;20&lt;/font&gt;&lt;/b&gt;" style="rounded=1;whiteSpace=wrap;html=1;fillColor=#ffe6cc;strokeColor=#d79b00;" parent="1" vertex="1">
          <mxGeometry x="780" y="120" width="130" height="70" as="geometry" />
        </mxCell>
        <mxCell id="oL3jrjro8VqfyhITFRKU-67" style="rounded=0;orthogonalLoop=1;jettySize=auto;html=1;exitX=0.25;exitY=1;exitDx=0;exitDy=0;entryX=0.429;entryY=-0.006;entryDx=0;entryDy=0;entryPerimeter=0;" parent="1" source="oL3jrjro8VqfyhITFRKU-5" target="oL3jrjro8VqfyhITFRKU-19" edge="1">
          <mxGeometry relative="1" as="geometry" />
        </mxCell>
        <mxCell id="oL3jrjro8VqfyhITFRKU-5" value="" style="rounded=1;whiteSpace=wrap;html=1;fillColor=#d5e8d4;strokeColor=#82b366;" parent="1" vertex="1">
          <mxGeometry x="-200" y="410" width="820" height="70" as="geometry" />
        </mxCell>
        <mxCell id="oL3jrjro8VqfyhITFRKU-6" value="&lt;b&gt;&lt;font style=&quot;font-size: 18px;&quot;&gt;1&lt;/font&gt;&lt;/b&gt;" style="rounded=1;whiteSpace=wrap;html=1;fillColor=#ffe6cc;strokeColor=#d79b00;" parent="1" vertex="1">
          <mxGeometry x="-200" y="410" width="150" height="70" as="geometry" />
        </mxCell>
        <mxCell id="oL3jrjro8VqfyhITFRKU-7" value="&lt;b&gt;&lt;font style=&quot;font-size: 18px;&quot;&gt;4&lt;/font&gt;&lt;/b&gt;" style="rounded=1;whiteSpace=wrap;html=1;fillColor=#ffe6cc;strokeColor=#d79b00;" parent="1" vertex="1">
          <mxGeometry x="70" y="410" width="150" height="70" as="geometry" />
        </mxCell>
        <mxCell id="oL3jrjro8VqfyhITFRKU-8" value="&lt;b&gt;&lt;font style=&quot;font-size: 18px;&quot;&gt;7&lt;/font&gt;&lt;/b&gt;" style="rounded=1;whiteSpace=wrap;html=1;fillColor=#ffe6cc;strokeColor=#d79b00;" parent="1" vertex="1">
          <mxGeometry x="330" y="410" width="150" height="70" as="geometry" />
        </mxCell>
        <mxCell id="oL3jrjro8VqfyhITFRKU-11" value="......" style="rounded=1;whiteSpace=wrap;html=1;" parent="1" vertex="1">
          <mxGeometry x="760" y="415" width="120" height="60" as="geometry" />
        </mxCell>
        <mxCell id="oL3jrjro8VqfyhITFRKU-12" value="......" style="rounded=1;whiteSpace=wrap;html=1;" parent="1" vertex="1">
          <mxGeometry x="1080" y="420" width="120" height="60" as="geometry" />
        </mxCell>
        <mxCell id="oL3jrjro8VqfyhITFRKU-14" value="" style="endArrow=classic;html=1;rounded=0;exitX=0.644;exitY=1.071;exitDx=0;exitDy=0;exitPerimeter=0;entryX=0.558;entryY=-0.017;entryDx=0;entryDy=0;entryPerimeter=0;" parent="1" source="oL3jrjro8VqfyhITFRKU-1" target="oL3jrjro8VqfyhITFRKU-11" edge="1">
          <mxGeometry width="50" height="50" relative="1" as="geometry">
            <mxPoint x="840" y="280" as="sourcePoint" />
            <mxPoint x="890" y="230" as="targetPoint" />
          </mxGeometry>
        </mxCell>
        <mxCell id="oL3jrjro8VqfyhITFRKU-16" value="" style="endArrow=classic;html=1;rounded=0;exitX=0.964;exitY=1;exitDx=0;exitDy=0;exitPerimeter=0;entryX=0.658;entryY=-0.067;entryDx=0;entryDy=0;entryPerimeter=0;" parent="1" source="oL3jrjro8VqfyhITFRKU-1" target="oL3jrjro8VqfyhITFRKU-12" edge="1">
          <mxGeometry width="50" height="50" relative="1" as="geometry">
            <mxPoint x="1110" y="260" as="sourcePoint" />
            <mxPoint x="1160" y="210" as="targetPoint" />
          </mxGeometry>
        </mxCell>
        <mxCell id="oL3jrjro8VqfyhITFRKU-20" value="" style="rounded=1;whiteSpace=wrap;html=1;" parent="1" vertex="1">
          <mxGeometry x="-403" y="700" width="480" height="100" as="geometry" />
        </mxCell>
        <mxCell id="oL3jrjro8VqfyhITFRKU-21" value="" style="rounded=1;whiteSpace=wrap;html=1;" parent="1" vertex="1">
          <mxGeometry x="-403" y="800" width="480" height="100" as="geometry" />
        </mxCell>
        <mxCell id="oL3jrjro8VqfyhITFRKU-22" value="" style="rounded=1;whiteSpace=wrap;html=1;" parent="1" vertex="1">
          <mxGeometry x="-403" y="900" width="480" height="100" as="geometry" />
        </mxCell>
        <mxCell id="oL3jrjro8VqfyhITFRKU-23" value="&lt;b&gt;&lt;font style=&quot;font-size: 18px;&quot;&gt;1&lt;/font&gt;&lt;/b&gt;" style="rounded=1;whiteSpace=wrap;html=1;fillColor=#ffe6cc;strokeColor=#d79b00;" parent="1" vertex="1">
          <mxGeometry x="-400" y="700" width="127" height="100" as="geometry" />
        </mxCell>
        <mxCell id="oL3jrjro8VqfyhITFRKU-24" value="&lt;b&gt;&lt;font style=&quot;font-size: 18px;&quot;&gt;0001&lt;/font&gt;&lt;/b&gt;" style="rounded=1;whiteSpace=wrap;html=1;fillColor=#ffe6cc;strokeColor=#d79b00;" parent="1" vertex="1">
          <mxGeometry x="-273" y="700" width="113" height="100" as="geometry" />
        </mxCell>
        <mxCell id="oL3jrjro8VqfyhITFRKU-25" value="&lt;b&gt;&lt;font style=&quot;font-size: 18px;&quot;&gt;apple&lt;/font&gt;&lt;/b&gt;" style="rounded=1;whiteSpace=wrap;html=1;fillColor=#ffe6cc;strokeColor=#d79b00;" parent="1" vertex="1">
          <mxGeometry x="-160" y="700" width="113" height="100" as="geometry" />
        </mxCell>
        <mxCell id="oL3jrjro8VqfyhITFRKU-26" value="&lt;b&gt;&lt;font style=&quot;font-size: 18px;&quot;&gt;6.00&lt;/font&gt;&lt;/b&gt;" style="rounded=1;whiteSpace=wrap;html=1;fillColor=#ffe6cc;strokeColor=#d79b00;" parent="1" vertex="1">
          <mxGeometry x="-47" y="700" width="124" height="100" as="geometry" />
        </mxCell>
        <mxCell id="oL3jrjro8VqfyhITFRKU-27" value="&lt;b&gt;&lt;font style=&quot;font-size: 18px;&quot;&gt;2&lt;/font&gt;&lt;/b&gt;" style="rounded=1;whiteSpace=wrap;html=1;fillColor=#ffe6cc;strokeColor=#d79b00;" parent="1" vertex="1">
          <mxGeometry x="-401.5" y="800" width="127" height="100" as="geometry" />
        </mxCell>
        <mxCell id="oL3jrjro8VqfyhITFRKU-28" value="&lt;b&gt;&lt;font style=&quot;font-size: 18px;&quot;&gt;0002&lt;/font&gt;&lt;/b&gt;" style="rounded=1;whiteSpace=wrap;html=1;fillColor=#ffe6cc;strokeColor=#d79b00;" parent="1" vertex="1">
          <mxGeometry x="-274.5" y="800" width="113" height="100" as="geometry" />
        </mxCell>
        <mxCell id="oL3jrjro8VqfyhITFRKU-29" value="&lt;b&gt;&lt;font style=&quot;font-size: 18px;&quot;&gt;apple&lt;/font&gt;&lt;/b&gt;" style="rounded=1;whiteSpace=wrap;html=1;fillColor=#ffe6cc;strokeColor=#d79b00;" parent="1" vertex="1">
          <mxGeometry x="-161.5" y="800" width="113" height="100" as="geometry" />
        </mxCell>
        <mxCell id="oL3jrjro8VqfyhITFRKU-30" value="&lt;b&gt;&lt;font style=&quot;font-size: 18px;&quot;&gt;6.00&lt;/font&gt;&lt;/b&gt;" style="rounded=1;whiteSpace=wrap;html=1;fillColor=#ffe6cc;strokeColor=#d79b00;" parent="1" vertex="1">
          <mxGeometry x="-48.5" y="800" width="124" height="100" as="geometry" />
        </mxCell>
        <mxCell id="oL3jrjro8VqfyhITFRKU-70" style="edgeStyle=orthogonalEdgeStyle;rounded=0;orthogonalLoop=1;jettySize=auto;html=1;exitX=0.5;exitY=1;exitDx=0;exitDy=0;entryX=0;entryY=0.5;entryDx=0;entryDy=0;" parent="1" source="oL3jrjro8VqfyhITFRKU-31" target="oL3jrjro8VqfyhITFRKU-36" edge="1">
          <mxGeometry relative="1" as="geometry">
            <Array as="points">
              <mxPoint x="-338" y="1060" />
              <mxPoint x="130" y="1060" />
              <mxPoint x="130" y="760" />
            </Array>
          </mxGeometry>
        </mxCell>
        <mxCell id="oL3jrjro8VqfyhITFRKU-31" value="&lt;b&gt;&lt;font style=&quot;font-size: 18px;&quot;&gt;3&lt;/font&gt;&lt;/b&gt;" style="rounded=1;whiteSpace=wrap;html=1;fillColor=#ffe6cc;strokeColor=#d79b00;" parent="1" vertex="1">
          <mxGeometry x="-401.5" y="900" width="127" height="100" as="geometry" />
        </mxCell>
        <mxCell id="oL3jrjro8VqfyhITFRKU-32" value="&lt;b&gt;&lt;font style=&quot;font-size: 18px;&quot;&gt;0003&lt;/font&gt;&lt;/b&gt;" style="rounded=1;whiteSpace=wrap;html=1;fillColor=#ffe6cc;strokeColor=#d79b00;" parent="1" vertex="1">
          <mxGeometry x="-274.5" y="900" width="113" height="100" as="geometry" />
        </mxCell>
        <mxCell id="oL3jrjro8VqfyhITFRKU-33" value="&lt;b&gt;&lt;font style=&quot;font-size: 18px;&quot;&gt;apple&lt;/font&gt;&lt;/b&gt;" style="rounded=1;whiteSpace=wrap;html=1;fillColor=#ffe6cc;strokeColor=#d79b00;" parent="1" vertex="1">
          <mxGeometry x="-161.5" y="900" width="113" height="100" as="geometry" />
        </mxCell>
        <mxCell id="oL3jrjro8VqfyhITFRKU-34" value="&lt;b&gt;&lt;font style=&quot;font-size: 18px;&quot;&gt;6.00&lt;/font&gt;&lt;/b&gt;" style="rounded=1;whiteSpace=wrap;html=1;fillColor=#ffe6cc;strokeColor=#d79b00;" parent="1" vertex="1">
          <mxGeometry x="-48.5" y="900" width="124" height="100" as="geometry" />
        </mxCell>
        <mxCell id="oL3jrjro8VqfyhITFRKU-36" value="" style="rounded=1;whiteSpace=wrap;html=1;" parent="1" vertex="1">
          <mxGeometry x="190" y="710" width="480" height="100" as="geometry" />
        </mxCell>
        <mxCell id="oL3jrjro8VqfyhITFRKU-37" value="" style="rounded=1;whiteSpace=wrap;html=1;" parent="1" vertex="1">
          <mxGeometry x="190" y="810" width="480" height="100" as="geometry" />
        </mxCell>
        <mxCell id="oL3jrjro8VqfyhITFRKU-38" value="" style="rounded=1;whiteSpace=wrap;html=1;" parent="1" vertex="1">
          <mxGeometry x="190" y="910" width="480" height="100" as="geometry" />
        </mxCell>
        <mxCell id="oL3jrjro8VqfyhITFRKU-39" value="&lt;b&gt;&lt;font style=&quot;font-size: 18px;&quot;&gt;4&lt;/font&gt;&lt;/b&gt;" style="rounded=1;whiteSpace=wrap;html=1;fillColor=#ffe6cc;strokeColor=#d79b00;" parent="1" vertex="1">
          <mxGeometry x="193" y="710" width="127" height="100" as="geometry" />
        </mxCell>
        <mxCell id="oL3jrjro8VqfyhITFRKU-40" value="&lt;b&gt;&lt;font style=&quot;font-size: 18px;&quot;&gt;...&lt;/font&gt;&lt;/b&gt;" style="rounded=1;whiteSpace=wrap;html=1;fillColor=#ffe6cc;strokeColor=#d79b00;" parent="1" vertex="1">
          <mxGeometry x="320" y="710" width="113" height="100" as="geometry" />
        </mxCell>
        <mxCell id="oL3jrjro8VqfyhITFRKU-41" value="&lt;b&gt;&lt;font style=&quot;font-size: 18px;&quot;&gt;...&lt;/font&gt;&lt;/b&gt;" style="rounded=1;whiteSpace=wrap;html=1;fillColor=#ffe6cc;strokeColor=#d79b00;" parent="1" vertex="1">
          <mxGeometry x="433" y="710" width="113" height="100" as="geometry" />
        </mxCell>
        <mxCell id="oL3jrjro8VqfyhITFRKU-42" value="&lt;b&gt;&lt;font style=&quot;font-size: 18px;&quot;&gt;...&lt;/font&gt;&lt;/b&gt;" style="rounded=1;whiteSpace=wrap;html=1;fillColor=#ffe6cc;strokeColor=#d79b00;" parent="1" vertex="1">
          <mxGeometry x="546" y="710" width="124" height="100" as="geometry" />
        </mxCell>
        <mxCell id="oL3jrjro8VqfyhITFRKU-43" value="&lt;b&gt;&lt;font style=&quot;font-size: 18px;&quot;&gt;5&lt;/font&gt;&lt;/b&gt;" style="rounded=1;whiteSpace=wrap;html=1;fillColor=#ffe6cc;strokeColor=#d79b00;" parent="1" vertex="1">
          <mxGeometry x="191.5" y="810" width="127" height="100" as="geometry" />
        </mxCell>
        <mxCell id="oL3jrjro8VqfyhITFRKU-44" value="&lt;b&gt;&lt;font style=&quot;font-size: 18px;&quot;&gt;...&lt;/font&gt;&lt;/b&gt;" style="rounded=1;whiteSpace=wrap;html=1;fillColor=#ffe6cc;strokeColor=#d79b00;" parent="1" vertex="1">
          <mxGeometry x="318.5" y="810" width="113" height="100" as="geometry" />
        </mxCell>
        <mxCell id="oL3jrjro8VqfyhITFRKU-45" value="&lt;b&gt;&lt;font style=&quot;font-size: 18px;&quot;&gt;...&lt;/font&gt;&lt;/b&gt;" style="rounded=1;whiteSpace=wrap;html=1;fillColor=#ffe6cc;strokeColor=#d79b00;" parent="1" vertex="1">
          <mxGeometry x="431.5" y="810" width="113" height="100" as="geometry" />
        </mxCell>
        <mxCell id="oL3jrjro8VqfyhITFRKU-46" value="&lt;b&gt;&lt;font style=&quot;font-size: 18px;&quot;&gt;...&lt;/font&gt;&lt;/b&gt;" style="rounded=1;whiteSpace=wrap;html=1;fillColor=#ffe6cc;strokeColor=#d79b00;" parent="1" vertex="1">
          <mxGeometry x="544.5" y="810" width="124" height="100" as="geometry" />
        </mxCell>
        <mxCell id="oL3jrjro8VqfyhITFRKU-47" value="&lt;b&gt;&lt;font style=&quot;font-size: 18px;&quot;&gt;6&lt;/font&gt;&lt;/b&gt;" style="rounded=1;whiteSpace=wrap;html=1;fillColor=#ffe6cc;strokeColor=#d79b00;" parent="1" vertex="1">
          <mxGeometry x="191.5" y="910" width="127" height="100" as="geometry" />
        </mxCell>
        <mxCell id="oL3jrjro8VqfyhITFRKU-48" value="&lt;b&gt;&lt;font style=&quot;font-size: 18px;&quot;&gt;...&lt;/font&gt;&lt;/b&gt;" style="rounded=1;whiteSpace=wrap;html=1;fillColor=#ffe6cc;strokeColor=#d79b00;" parent="1" vertex="1">
          <mxGeometry x="318.5" y="910" width="113" height="100" as="geometry" />
        </mxCell>
        <mxCell id="oL3jrjro8VqfyhITFRKU-49" value="&lt;b&gt;&lt;font style=&quot;font-size: 18px;&quot;&gt;...&lt;/font&gt;&lt;/b&gt;" style="rounded=1;whiteSpace=wrap;html=1;fillColor=#ffe6cc;strokeColor=#d79b00;" parent="1" vertex="1">
          <mxGeometry x="431.5" y="910" width="113" height="100" as="geometry" />
        </mxCell>
        <mxCell id="oL3jrjro8VqfyhITFRKU-50" value="&lt;b&gt;&lt;font style=&quot;font-size: 18px;&quot;&gt;...&lt;/font&gt;&lt;/b&gt;" style="rounded=1;whiteSpace=wrap;html=1;fillColor=#ffe6cc;strokeColor=#d79b00;" parent="1" vertex="1">
          <mxGeometry x="544.5" y="910" width="124" height="100" as="geometry" />
        </mxCell>
        <mxCell id="oL3jrjro8VqfyhITFRKU-52" value="" style="rounded=1;whiteSpace=wrap;html=1;" parent="1" vertex="1">
          <mxGeometry x="760" y="710" width="480" height="100" as="geometry" />
        </mxCell>
        <mxCell id="oL3jrjro8VqfyhITFRKU-53" value="" style="rounded=1;whiteSpace=wrap;html=1;" parent="1" vertex="1">
          <mxGeometry x="760" y="810" width="480" height="100" as="geometry" />
        </mxCell>
        <mxCell id="oL3jrjro8VqfyhITFRKU-54" value="" style="rounded=1;whiteSpace=wrap;html=1;" parent="1" vertex="1">
          <mxGeometry x="760" y="910" width="480" height="100" as="geometry" />
        </mxCell>
        <mxCell id="oL3jrjro8VqfyhITFRKU-55" value="&lt;b&gt;&lt;font style=&quot;font-size: 18px;&quot;&gt;7&lt;/font&gt;&lt;/b&gt;" style="rounded=1;whiteSpace=wrap;html=1;fillColor=#ffe6cc;strokeColor=#d79b00;" parent="1" vertex="1">
          <mxGeometry x="763" y="710" width="127" height="100" as="geometry" />
        </mxCell>
        <mxCell id="oL3jrjro8VqfyhITFRKU-56" value="&lt;b&gt;&lt;font style=&quot;font-size: 18px;&quot;&gt;...&lt;/font&gt;&lt;/b&gt;" style="rounded=1;whiteSpace=wrap;html=1;fillColor=#ffe6cc;strokeColor=#d79b00;" parent="1" vertex="1">
          <mxGeometry x="890" y="710" width="113" height="100" as="geometry" />
        </mxCell>
        <mxCell id="oL3jrjro8VqfyhITFRKU-57" value="&lt;b&gt;&lt;font style=&quot;font-size: 18px;&quot;&gt;...&lt;/font&gt;&lt;/b&gt;" style="rounded=1;whiteSpace=wrap;html=1;fillColor=#ffe6cc;strokeColor=#d79b00;" parent="1" vertex="1">
          <mxGeometry x="1003" y="710" width="113" height="100" as="geometry" />
        </mxCell>
        <mxCell id="oL3jrjro8VqfyhITFRKU-58" value="&lt;b&gt;&lt;font style=&quot;font-size: 18px;&quot;&gt;...&lt;/font&gt;&lt;/b&gt;" style="rounded=1;whiteSpace=wrap;html=1;fillColor=#ffe6cc;strokeColor=#d79b00;" parent="1" vertex="1">
          <mxGeometry x="1116" y="710" width="124" height="100" as="geometry" />
        </mxCell>
        <mxCell id="oL3jrjro8VqfyhITFRKU-59" value="&lt;b&gt;&lt;font style=&quot;font-size: 18px;&quot;&gt;8&lt;/font&gt;&lt;/b&gt;" style="rounded=1;whiteSpace=wrap;html=1;fillColor=#ffe6cc;strokeColor=#d79b00;" parent="1" vertex="1">
          <mxGeometry x="761.5" y="810" width="127" height="100" as="geometry" />
        </mxCell>
        <mxCell id="oL3jrjro8VqfyhITFRKU-60" value="&lt;b&gt;&lt;font style=&quot;font-size: 18px;&quot;&gt;...&lt;/font&gt;&lt;/b&gt;" style="rounded=1;whiteSpace=wrap;html=1;fillColor=#ffe6cc;strokeColor=#d79b00;" parent="1" vertex="1">
          <mxGeometry x="888.5" y="810" width="113" height="100" as="geometry" />
        </mxCell>
        <mxCell id="oL3jrjro8VqfyhITFRKU-61" value="&lt;b&gt;&lt;font style=&quot;font-size: 18px;&quot;&gt;...&lt;/font&gt;&lt;/b&gt;" style="rounded=1;whiteSpace=wrap;html=1;fillColor=#ffe6cc;strokeColor=#d79b00;" parent="1" vertex="1">
          <mxGeometry x="1001.5" y="810" width="113" height="100" as="geometry" />
        </mxCell>
        <mxCell id="oL3jrjro8VqfyhITFRKU-62" value="&lt;b&gt;&lt;font style=&quot;font-size: 18px;&quot;&gt;...&lt;/font&gt;&lt;/b&gt;" style="rounded=1;whiteSpace=wrap;html=1;fillColor=#ffe6cc;strokeColor=#d79b00;" parent="1" vertex="1">
          <mxGeometry x="1114.5" y="810" width="124" height="100" as="geometry" />
        </mxCell>
        <mxCell id="oL3jrjro8VqfyhITFRKU-63" value="&lt;b&gt;&lt;font style=&quot;font-size: 18px;&quot;&gt;9&lt;/font&gt;&lt;/b&gt;" style="rounded=1;whiteSpace=wrap;html=1;fillColor=#ffe6cc;strokeColor=#d79b00;" parent="1" vertex="1">
          <mxGeometry x="761.5" y="910" width="127" height="100" as="geometry" />
        </mxCell>
        <mxCell id="oL3jrjro8VqfyhITFRKU-64" value="&lt;b&gt;&lt;font style=&quot;font-size: 18px;&quot;&gt;...&lt;/font&gt;&lt;/b&gt;" style="rounded=1;whiteSpace=wrap;html=1;fillColor=#ffe6cc;strokeColor=#d79b00;" parent="1" vertex="1">
          <mxGeometry x="888.5" y="910" width="113" height="100" as="geometry" />
        </mxCell>
        <mxCell id="oL3jrjro8VqfyhITFRKU-65" value="&lt;b&gt;&lt;font style=&quot;font-size: 18px;&quot;&gt;...&lt;/font&gt;&lt;/b&gt;" style="rounded=1;whiteSpace=wrap;html=1;fillColor=#ffe6cc;strokeColor=#d79b00;" parent="1" vertex="1">
          <mxGeometry x="1001.5" y="910" width="113" height="100" as="geometry" />
        </mxCell>
        <mxCell id="oL3jrjro8VqfyhITFRKU-66" value="&lt;b&gt;&lt;font style=&quot;font-size: 18px;&quot;&gt;...&lt;/font&gt;&lt;/b&gt;" style="rounded=1;whiteSpace=wrap;html=1;fillColor=#ffe6cc;strokeColor=#d79b00;" parent="1" vertex="1">
          <mxGeometry x="1114.5" y="910" width="124" height="100" as="geometry" />
        </mxCell>
        <mxCell id="oL3jrjro8VqfyhITFRKU-68" value="" style="endArrow=classic;html=1;rounded=0;exitX=0.57;exitY=1;exitDx=0;exitDy=0;exitPerimeter=0;entryX=0.5;entryY=0;entryDx=0;entryDy=0;" parent="1" source="oL3jrjro8VqfyhITFRKU-5" target="oL3jrjro8VqfyhITFRKU-35" edge="1">
          <mxGeometry width="50" height="50" relative="1" as="geometry">
            <mxPoint x="320" y="610" as="sourcePoint" />
            <mxPoint x="370" y="560" as="targetPoint" />
          </mxGeometry>
        </mxCell>
        <mxCell id="oL3jrjro8VqfyhITFRKU-69" value="" style="endArrow=classic;html=1;rounded=0;exitX=0.93;exitY=1.043;exitDx=0;exitDy=0;exitPerimeter=0;entryX=0.489;entryY=-0.009;entryDx=0;entryDy=0;entryPerimeter=0;" parent="1" source="oL3jrjro8VqfyhITFRKU-5" target="oL3jrjro8VqfyhITFRKU-51" edge="1">
          <mxGeometry width="50" height="50" relative="1" as="geometry">
            <mxPoint x="780" y="590" as="sourcePoint" />
            <mxPoint x="830" y="540" as="targetPoint" />
          </mxGeometry>
        </mxCell>
        <mxCell id="oL3jrjro8VqfyhITFRKU-71" value="" style="endArrow=classic;html=1;rounded=0;entryX=0.25;entryY=1;entryDx=0;entryDy=0;exitX=0;exitY=0.75;exitDx=0;exitDy=0;" parent="1" source="oL3jrjro8VqfyhITFRKU-36" target="oL3jrjro8VqfyhITFRKU-31" edge="1">
          <mxGeometry width="50" height="50" relative="1" as="geometry">
            <mxPoint x="130" y="1110" as="sourcePoint" />
            <mxPoint x="180" y="1060" as="targetPoint" />
            <Array as="points">
              <mxPoint x="150" y="785" />
              <mxPoint x="150" y="1130" />
              <mxPoint x="-370" y="1130" />
            </Array>
          </mxGeometry>
        </mxCell>
        <mxCell id="oL3jrjro8VqfyhITFRKU-72" value="" style="endArrow=classic;html=1;rounded=0;entryX=0.25;entryY=1;entryDx=0;entryDy=0;exitX=0;exitY=0.75;exitDx=0;exitDy=0;" parent="1" edge="1">
          <mxGeometry width="50" height="50" relative="1" as="geometry">
            <mxPoint x="768" y="787.5" as="sourcePoint" />
            <mxPoint x="208" y="1002.5" as="targetPoint" />
            <Array as="points">
              <mxPoint x="728" y="787.5" />
              <mxPoint x="728" y="1132.5" />
              <mxPoint x="208" y="1132.5" />
            </Array>
          </mxGeometry>
        </mxCell>
        <mxCell id="oL3jrjro8VqfyhITFRKU-73" style="edgeStyle=orthogonalEdgeStyle;rounded=0;orthogonalLoop=1;jettySize=auto;html=1;exitX=0.5;exitY=1;exitDx=0;exitDy=0;entryX=0;entryY=0.5;entryDx=0;entryDy=0;" parent="1" edge="1">
          <mxGeometry relative="1" as="geometry">
            <mxPoint x="240" y="1010" as="sourcePoint" />
            <mxPoint x="768" y="770" as="targetPoint" />
            <Array as="points">
              <mxPoint x="240" y="1070" />
              <mxPoint x="708" y="1070" />
              <mxPoint x="708" y="770" />
            </Array>
          </mxGeometry>
        </mxCell>
        <mxCell id="oL3jrjro8VqfyhITFRKU-75" value="&lt;b&gt;&lt;font style=&quot;font-size: 18px;&quot;&gt;主键索引的B+Tree结构图&lt;/font&gt;&lt;/b&gt;" style="text;html=1;strokeColor=none;fillColor=none;align=center;verticalAlign=middle;whiteSpace=wrap;rounded=0;" parent="1" vertex="1">
          <mxGeometry x="-394.5" y="80" width="233" height="30" as="geometry" />
        </mxCell>
        <mxCell id="oL3jrjro8VqfyhITFRKU-77" value="" style="rounded=1;whiteSpace=wrap;html=1;fillColor=#d5e8d4;strokeColor=#82b366;" parent="1" vertex="1">
          <mxGeometry x="750" y="2100" width="260" height="320" as="geometry" />
        </mxCell>
        <mxCell id="oL3jrjro8VqfyhITFRKU-78" value="" style="rounded=1;whiteSpace=wrap;html=1;fillColor=#d5e8d4;strokeColor=#82b366;" parent="1" vertex="1">
          <mxGeometry x="-413" y="2090" width="263" height="320" as="geometry" />
        </mxCell>
        <mxCell id="oL3jrjro8VqfyhITFRKU-79" value="" style="rounded=1;whiteSpace=wrap;html=1;fillColor=#d5e8d4;strokeColor=#82b366;" parent="1" vertex="1">
          <mxGeometry x="180" y="2100" width="260" height="320" as="geometry" />
        </mxCell>
        <mxCell id="oL3jrjro8VqfyhITFRKU-80" style="rounded=0;orthogonalLoop=1;jettySize=auto;html=1;exitX=0.25;exitY=1;exitDx=0;exitDy=0;entryX=0.25;entryY=0;entryDx=0;entryDy=0;" parent="1" source="oL3jrjro8VqfyhITFRKU-81" target="oL3jrjro8VqfyhITFRKU-86" edge="1">
          <mxGeometry relative="1" as="geometry" />
        </mxCell>
        <mxCell id="oL3jrjro8VqfyhITFRKU-81" value="" style="rounded=1;whiteSpace=wrap;html=1;fillColor=#d5e8d4;strokeColor=#82b366;" parent="1" vertex="1">
          <mxGeometry x="110" y="1520" width="940" height="70" as="geometry" />
        </mxCell>
        <mxCell id="oL3jrjro8VqfyhITFRKU-82" value="&lt;b&gt;&lt;font style=&quot;font-size: 18px;&quot;&gt;0001&lt;/font&gt;&lt;/b&gt;" style="rounded=1;whiteSpace=wrap;html=1;fillColor=#ffe6cc;strokeColor=#d79b00;" parent="1" vertex="1">
          <mxGeometry x="110" y="1520" width="150" height="70" as="geometry" />
        </mxCell>
        <mxCell id="oL3jrjro8VqfyhITFRKU-83" value="&lt;b&gt;&lt;font style=&quot;font-size: 18px;&quot;&gt;0010&lt;/font&gt;&lt;/b&gt;" style="rounded=1;whiteSpace=wrap;html=1;fillColor=#ffe6cc;strokeColor=#d79b00;" parent="1" vertex="1">
          <mxGeometry x="460" y="1520" width="150" height="70" as="geometry" />
        </mxCell>
        <mxCell id="oL3jrjro8VqfyhITFRKU-84" value="&lt;b&gt;&lt;font style=&quot;font-size: 18px;&quot;&gt;0020&lt;/font&gt;&lt;/b&gt;" style="rounded=1;whiteSpace=wrap;html=1;fillColor=#ffe6cc;strokeColor=#d79b00;" parent="1" vertex="1">
          <mxGeometry x="780" y="1520" width="130" height="70" as="geometry" />
        </mxCell>
        <mxCell id="oL3jrjro8VqfyhITFRKU-85" style="rounded=0;orthogonalLoop=1;jettySize=auto;html=1;exitX=0.25;exitY=1;exitDx=0;exitDy=0;entryX=0.429;entryY=-0.006;entryDx=0;entryDy=0;entryPerimeter=0;" parent="1" source="oL3jrjro8VqfyhITFRKU-86" target="oL3jrjro8VqfyhITFRKU-78" edge="1">
          <mxGeometry relative="1" as="geometry" />
        </mxCell>
        <mxCell id="oL3jrjro8VqfyhITFRKU-86" value="" style="rounded=1;whiteSpace=wrap;html=1;fillColor=#d5e8d4;strokeColor=#82b366;" parent="1" vertex="1">
          <mxGeometry x="-200" y="1810" width="820" height="70" as="geometry" />
        </mxCell>
        <mxCell id="oL3jrjro8VqfyhITFRKU-87" value="&lt;b&gt;&lt;font style=&quot;font-size: 18px;&quot;&gt;0001&lt;/font&gt;&lt;/b&gt;" style="rounded=1;whiteSpace=wrap;html=1;fillColor=#ffe6cc;strokeColor=#d79b00;" parent="1" vertex="1">
          <mxGeometry x="-200" y="1810" width="150" height="70" as="geometry" />
        </mxCell>
        <mxCell id="oL3jrjro8VqfyhITFRKU-88" value="&lt;b&gt;&lt;font style=&quot;font-size: 18px;&quot;&gt;0004&lt;/font&gt;&lt;/b&gt;" style="rounded=1;whiteSpace=wrap;html=1;fillColor=#ffe6cc;strokeColor=#d79b00;" parent="1" vertex="1">
          <mxGeometry x="70" y="1810" width="150" height="70" as="geometry" />
        </mxCell>
        <mxCell id="oL3jrjro8VqfyhITFRKU-89" value="&lt;b&gt;&lt;font style=&quot;font-size: 18px;&quot;&gt;0007&lt;/font&gt;&lt;/b&gt;" style="rounded=1;whiteSpace=wrap;html=1;fillColor=#ffe6cc;strokeColor=#d79b00;" parent="1" vertex="1">
          <mxGeometry x="330" y="1810" width="150" height="70" as="geometry" />
        </mxCell>
        <mxCell id="oL3jrjro8VqfyhITFRKU-90" value="......" style="rounded=1;whiteSpace=wrap;html=1;" parent="1" vertex="1">
          <mxGeometry x="760" y="1815" width="120" height="60" as="geometry" />
        </mxCell>
        <mxCell id="oL3jrjro8VqfyhITFRKU-91" value="......" style="rounded=1;whiteSpace=wrap;html=1;" parent="1" vertex="1">
          <mxGeometry x="1080" y="1820" width="120" height="60" as="geometry" />
        </mxCell>
        <mxCell id="oL3jrjro8VqfyhITFRKU-92" value="" style="endArrow=classic;html=1;rounded=0;exitX=0.644;exitY=1.071;exitDx=0;exitDy=0;exitPerimeter=0;entryX=0.558;entryY=-0.017;entryDx=0;entryDy=0;entryPerimeter=0;" parent="1" source="oL3jrjro8VqfyhITFRKU-81" target="oL3jrjro8VqfyhITFRKU-90" edge="1">
          <mxGeometry width="50" height="50" relative="1" as="geometry">
            <mxPoint x="840" y="1680" as="sourcePoint" />
            <mxPoint x="890" y="1630" as="targetPoint" />
          </mxGeometry>
        </mxCell>
        <mxCell id="oL3jrjro8VqfyhITFRKU-93" value="" style="endArrow=classic;html=1;rounded=0;exitX=0.964;exitY=1;exitDx=0;exitDy=0;exitPerimeter=0;entryX=0.658;entryY=-0.067;entryDx=0;entryDy=0;entryPerimeter=0;" parent="1" source="oL3jrjro8VqfyhITFRKU-81" target="oL3jrjro8VqfyhITFRKU-91" edge="1">
          <mxGeometry width="50" height="50" relative="1" as="geometry">
            <mxPoint x="1110" y="1660" as="sourcePoint" />
            <mxPoint x="1160" y="1610" as="targetPoint" />
          </mxGeometry>
        </mxCell>
        <mxCell id="oL3jrjro8VqfyhITFRKU-94" value="" style="rounded=1;whiteSpace=wrap;html=1;" parent="1" vertex="1">
          <mxGeometry x="-403" y="2100" width="243" height="100" as="geometry" />
        </mxCell>
        <mxCell id="oL3jrjro8VqfyhITFRKU-95" value="" style="rounded=1;whiteSpace=wrap;html=1;" parent="1" vertex="1">
          <mxGeometry x="-403" y="2200" width="243" height="100" as="geometry" />
        </mxCell>
        <mxCell id="oL3jrjro8VqfyhITFRKU-96" value="" style="rounded=1;whiteSpace=wrap;html=1;" parent="1" vertex="1">
          <mxGeometry x="-403" y="2300" width="243" height="100" as="geometry" />
        </mxCell>
        <mxCell id="oL3jrjro8VqfyhITFRKU-97" value="&lt;b&gt;&lt;font style=&quot;font-size: 18px;&quot;&gt;0001&lt;/font&gt;&lt;/b&gt;" style="rounded=1;whiteSpace=wrap;html=1;fillColor=#ffe6cc;strokeColor=#d79b00;" parent="1" vertex="1">
          <mxGeometry x="-400" y="2100" width="127" height="100" as="geometry" />
        </mxCell>
        <mxCell id="oL3jrjro8VqfyhITFRKU-98" value="&lt;b&gt;&lt;font style=&quot;font-size: 18px;&quot;&gt;1&lt;/font&gt;&lt;/b&gt;" style="rounded=1;whiteSpace=wrap;html=1;fillColor=#ffe6cc;strokeColor=#d79b00;" parent="1" vertex="1">
          <mxGeometry x="-273" y="2100" width="113" height="100" as="geometry" />
        </mxCell>
        <mxCell id="oL3jrjro8VqfyhITFRKU-101" value="&lt;b&gt;&lt;font style=&quot;font-size: 18px;&quot;&gt;0002&lt;/font&gt;&lt;/b&gt;" style="rounded=1;whiteSpace=wrap;html=1;fillColor=#ffe6cc;strokeColor=#d79b00;" parent="1" vertex="1">
          <mxGeometry x="-401.5" y="2200" width="127" height="100" as="geometry" />
        </mxCell>
        <mxCell id="oL3jrjro8VqfyhITFRKU-102" value="&lt;b&gt;&lt;font style=&quot;font-size: 18px;&quot;&gt;2&lt;/font&gt;&lt;/b&gt;" style="rounded=1;whiteSpace=wrap;html=1;fillColor=#ffe6cc;strokeColor=#d79b00;" parent="1" vertex="1">
          <mxGeometry x="-274.5" y="2200" width="113" height="100" as="geometry" />
        </mxCell>
        <mxCell id="oL3jrjro8VqfyhITFRKU-105" style="edgeStyle=orthogonalEdgeStyle;rounded=0;orthogonalLoop=1;jettySize=auto;html=1;exitX=0.5;exitY=1;exitDx=0;exitDy=0;entryX=0;entryY=0.5;entryDx=0;entryDy=0;" parent="1" source="oL3jrjro8VqfyhITFRKU-106" target="oL3jrjro8VqfyhITFRKU-110" edge="1">
          <mxGeometry relative="1" as="geometry">
            <Array as="points">
              <mxPoint x="-338" y="2460" />
              <mxPoint x="130" y="2460" />
              <mxPoint x="130" y="2160" />
            </Array>
          </mxGeometry>
        </mxCell>
        <mxCell id="oL3jrjro8VqfyhITFRKU-106" value="&lt;b&gt;&lt;font style=&quot;font-size: 18px;&quot;&gt;00003&lt;/font&gt;&lt;/b&gt;" style="rounded=1;whiteSpace=wrap;html=1;fillColor=#ffe6cc;strokeColor=#d79b00;" parent="1" vertex="1">
          <mxGeometry x="-401.5" y="2300" width="127" height="100" as="geometry" />
        </mxCell>
        <mxCell id="oL3jrjro8VqfyhITFRKU-107" value="&lt;b&gt;&lt;font style=&quot;font-size: 18px;&quot;&gt;3&lt;/font&gt;&lt;/b&gt;" style="rounded=1;whiteSpace=wrap;html=1;fillColor=#ffe6cc;strokeColor=#d79b00;" parent="1" vertex="1">
          <mxGeometry x="-274.5" y="2300" width="113" height="100" as="geometry" />
        </mxCell>
        <mxCell id="oL3jrjro8VqfyhITFRKU-110" value="" style="rounded=1;whiteSpace=wrap;html=1;" parent="1" vertex="1">
          <mxGeometry x="190" y="2110" width="240" height="100" as="geometry" />
        </mxCell>
        <mxCell id="oL3jrjro8VqfyhITFRKU-111" value="" style="rounded=1;whiteSpace=wrap;html=1;" parent="1" vertex="1">
          <mxGeometry x="190" y="2210" width="240" height="100" as="geometry" />
        </mxCell>
        <mxCell id="oL3jrjro8VqfyhITFRKU-112" value="" style="rounded=1;whiteSpace=wrap;html=1;" parent="1" vertex="1">
          <mxGeometry x="190" y="2310" width="240" height="100" as="geometry" />
        </mxCell>
        <mxCell id="oL3jrjro8VqfyhITFRKU-113" value="&lt;b&gt;&lt;font style=&quot;font-size: 18px;&quot;&gt;0004&lt;/font&gt;&lt;/b&gt;" style="rounded=1;whiteSpace=wrap;html=1;fillColor=#ffe6cc;strokeColor=#d79b00;" parent="1" vertex="1">
          <mxGeometry x="193" y="2110" width="127" height="100" as="geometry" />
        </mxCell>
        <mxCell id="oL3jrjro8VqfyhITFRKU-114" value="&lt;b&gt;&lt;font style=&quot;font-size: 18px;&quot;&gt;4&lt;/font&gt;&lt;/b&gt;" style="rounded=1;whiteSpace=wrap;html=1;fillColor=#ffe6cc;strokeColor=#d79b00;" parent="1" vertex="1">
          <mxGeometry x="320" y="2110" width="113" height="100" as="geometry" />
        </mxCell>
        <mxCell id="oL3jrjro8VqfyhITFRKU-117" value="&lt;b&gt;&lt;font style=&quot;font-size: 18px;&quot;&gt;0005&lt;/font&gt;&lt;/b&gt;" style="rounded=1;whiteSpace=wrap;html=1;fillColor=#ffe6cc;strokeColor=#d79b00;" parent="1" vertex="1">
          <mxGeometry x="191.5" y="2210" width="127" height="100" as="geometry" />
        </mxCell>
        <mxCell id="oL3jrjro8VqfyhITFRKU-118" value="&lt;b&gt;&lt;font style=&quot;font-size: 18px;&quot;&gt;5&lt;/font&gt;&lt;/b&gt;" style="rounded=1;whiteSpace=wrap;html=1;fillColor=#ffe6cc;strokeColor=#d79b00;" parent="1" vertex="1">
          <mxGeometry x="318.5" y="2210" width="113" height="100" as="geometry" />
        </mxCell>
        <mxCell id="oL3jrjro8VqfyhITFRKU-121" value="&lt;b&gt;&lt;font style=&quot;font-size: 18px;&quot;&gt;0006&lt;/font&gt;&lt;/b&gt;" style="rounded=1;whiteSpace=wrap;html=1;fillColor=#ffe6cc;strokeColor=#d79b00;" parent="1" vertex="1">
          <mxGeometry x="191.5" y="2310" width="127" height="100" as="geometry" />
        </mxCell>
        <mxCell id="oL3jrjro8VqfyhITFRKU-122" value="&lt;b&gt;&lt;font style=&quot;font-size: 18px;&quot;&gt;6&lt;/font&gt;&lt;/b&gt;" style="rounded=1;whiteSpace=wrap;html=1;fillColor=#ffe6cc;strokeColor=#d79b00;" parent="1" vertex="1">
          <mxGeometry x="318.5" y="2310" width="113" height="100" as="geometry" />
        </mxCell>
        <mxCell id="oL3jrjro8VqfyhITFRKU-125" value="" style="rounded=1;whiteSpace=wrap;html=1;" parent="1" vertex="1">
          <mxGeometry x="760" y="2110" width="240" height="100" as="geometry" />
        </mxCell>
        <mxCell id="oL3jrjro8VqfyhITFRKU-126" value="" style="rounded=1;whiteSpace=wrap;html=1;" parent="1" vertex="1">
          <mxGeometry x="760" y="2210" width="240" height="100" as="geometry" />
        </mxCell>
        <mxCell id="oL3jrjro8VqfyhITFRKU-127" value="" style="rounded=1;whiteSpace=wrap;html=1;" parent="1" vertex="1">
          <mxGeometry x="760" y="2310" width="240" height="100" as="geometry" />
        </mxCell>
        <mxCell id="oL3jrjro8VqfyhITFRKU-128" value="&lt;b&gt;&lt;font style=&quot;font-size: 18px;&quot;&gt;0007&lt;/font&gt;&lt;/b&gt;" style="rounded=1;whiteSpace=wrap;html=1;fillColor=#ffe6cc;strokeColor=#d79b00;" parent="1" vertex="1">
          <mxGeometry x="763" y="2110" width="127" height="100" as="geometry" />
        </mxCell>
        <mxCell id="oL3jrjro8VqfyhITFRKU-129" value="&lt;b&gt;&lt;font style=&quot;font-size: 18px;&quot;&gt;7&lt;/font&gt;&lt;/b&gt;" style="rounded=1;whiteSpace=wrap;html=1;fillColor=#ffe6cc;strokeColor=#d79b00;" parent="1" vertex="1">
          <mxGeometry x="890" y="2110" width="113" height="100" as="geometry" />
        </mxCell>
        <mxCell id="oL3jrjro8VqfyhITFRKU-132" value="&lt;b&gt;&lt;font style=&quot;font-size: 18px;&quot;&gt;0008&lt;/font&gt;&lt;/b&gt;" style="rounded=1;whiteSpace=wrap;html=1;fillColor=#ffe6cc;strokeColor=#d79b00;" parent="1" vertex="1">
          <mxGeometry x="761.5" y="2210" width="127" height="100" as="geometry" />
        </mxCell>
        <mxCell id="oL3jrjro8VqfyhITFRKU-133" value="&lt;b&gt;&lt;font style=&quot;font-size: 18px;&quot;&gt;8&lt;/font&gt;&lt;/b&gt;" style="rounded=1;whiteSpace=wrap;html=1;fillColor=#ffe6cc;strokeColor=#d79b00;" parent="1" vertex="1">
          <mxGeometry x="888.5" y="2210" width="113" height="100" as="geometry" />
        </mxCell>
        <mxCell id="oL3jrjro8VqfyhITFRKU-136" value="&lt;b&gt;&lt;font style=&quot;font-size: 18px;&quot;&gt;0009&lt;/font&gt;&lt;/b&gt;" style="rounded=1;whiteSpace=wrap;html=1;fillColor=#ffe6cc;strokeColor=#d79b00;" parent="1" vertex="1">
          <mxGeometry x="761.5" y="2310" width="127" height="100" as="geometry" />
        </mxCell>
        <mxCell id="oL3jrjro8VqfyhITFRKU-137" value="&lt;b&gt;&lt;font style=&quot;font-size: 18px;&quot;&gt;9&lt;/font&gt;&lt;/b&gt;" style="rounded=1;whiteSpace=wrap;html=1;fillColor=#ffe6cc;strokeColor=#d79b00;" parent="1" vertex="1">
          <mxGeometry x="888.5" y="2310" width="113" height="100" as="geometry" />
        </mxCell>
        <mxCell id="oL3jrjro8VqfyhITFRKU-140" value="" style="endArrow=classic;html=1;rounded=0;exitX=0.57;exitY=1;exitDx=0;exitDy=0;exitPerimeter=0;entryX=0.5;entryY=0;entryDx=0;entryDy=0;" parent="1" source="oL3jrjro8VqfyhITFRKU-86" target="oL3jrjro8VqfyhITFRKU-79" edge="1">
          <mxGeometry width="50" height="50" relative="1" as="geometry">
            <mxPoint x="320" y="2010" as="sourcePoint" />
            <mxPoint x="370" y="1960" as="targetPoint" />
          </mxGeometry>
        </mxCell>
        <mxCell id="oL3jrjro8VqfyhITFRKU-141" value="" style="endArrow=classic;html=1;rounded=0;exitX=0.93;exitY=1.043;exitDx=0;exitDy=0;exitPerimeter=0;entryX=0.489;entryY=-0.009;entryDx=0;entryDy=0;entryPerimeter=0;" parent="1" source="oL3jrjro8VqfyhITFRKU-86" target="oL3jrjro8VqfyhITFRKU-77" edge="1">
          <mxGeometry width="50" height="50" relative="1" as="geometry">
            <mxPoint x="780" y="1990" as="sourcePoint" />
            <mxPoint x="830" y="1940" as="targetPoint" />
          </mxGeometry>
        </mxCell>
        <mxCell id="oL3jrjro8VqfyhITFRKU-142" value="" style="endArrow=classic;html=1;rounded=0;entryX=0.25;entryY=1;entryDx=0;entryDy=0;exitX=0;exitY=0.75;exitDx=0;exitDy=0;" parent="1" source="oL3jrjro8VqfyhITFRKU-110" target="oL3jrjro8VqfyhITFRKU-106" edge="1">
          <mxGeometry width="50" height="50" relative="1" as="geometry">
            <mxPoint x="130" y="2510" as="sourcePoint" />
            <mxPoint x="180" y="2460" as="targetPoint" />
            <Array as="points">
              <mxPoint x="150" y="2185" />
              <mxPoint x="150" y="2530" />
              <mxPoint x="-370" y="2530" />
            </Array>
          </mxGeometry>
        </mxCell>
        <mxCell id="oL3jrjro8VqfyhITFRKU-143" value="" style="endArrow=classic;html=1;rounded=0;entryX=0.25;entryY=1;entryDx=0;entryDy=0;exitX=0;exitY=0.75;exitDx=0;exitDy=0;" parent="1" edge="1">
          <mxGeometry width="50" height="50" relative="1" as="geometry">
            <mxPoint x="768" y="2187.5" as="sourcePoint" />
            <mxPoint x="208" y="2402.5" as="targetPoint" />
            <Array as="points">
              <mxPoint x="728" y="2187.5" />
              <mxPoint x="728" y="2532.5" />
              <mxPoint x="208" y="2532.5" />
            </Array>
          </mxGeometry>
        </mxCell>
        <mxCell id="oL3jrjro8VqfyhITFRKU-144" style="edgeStyle=orthogonalEdgeStyle;rounded=0;orthogonalLoop=1;jettySize=auto;html=1;exitX=0.5;exitY=1;exitDx=0;exitDy=0;entryX=0;entryY=0.5;entryDx=0;entryDy=0;" parent="1" edge="1">
          <mxGeometry relative="1" as="geometry">
            <mxPoint x="240" y="2410" as="sourcePoint" />
            <mxPoint x="768" y="2170" as="targetPoint" />
            <Array as="points">
              <mxPoint x="240" y="2470" />
              <mxPoint x="708" y="2470" />
              <mxPoint x="708" y="2170" />
            </Array>
          </mxGeometry>
        </mxCell>
        <mxCell id="oL3jrjro8VqfyhITFRKU-145" value="&lt;b&gt;&lt;font style=&quot;font-size: 18px;&quot;&gt;二级索引的B+Tree结构图&lt;/font&gt;&lt;/b&gt;" style="text;html=1;strokeColor=none;fillColor=none;align=center;verticalAlign=middle;whiteSpace=wrap;rounded=0;" parent="1" vertex="1">
          <mxGeometry x="-394.5" y="1480" width="233" height="30" as="geometry" />
        </mxCell>
        <mxCell id="oL3jrjro8VqfyhITFRKU-147" value="" style="rounded=1;whiteSpace=wrap;html=1;fillColor=#d5e8d4;strokeColor=#82b366;" parent="1" vertex="1">
          <mxGeometry x="755" y="3470" width="513" height="320" as="geometry" />
        </mxCell>
        <mxCell id="oL3jrjro8VqfyhITFRKU-148" value="" style="rounded=1;whiteSpace=wrap;html=1;fillColor=#d5e8d4;strokeColor=#82b366;" parent="1" vertex="1">
          <mxGeometry x="-408" y="3460" width="513" height="320" as="geometry" />
        </mxCell>
        <mxCell id="oL3jrjro8VqfyhITFRKU-149" value="" style="rounded=1;whiteSpace=wrap;html=1;fillColor=#d5e8d4;strokeColor=#82b366;" parent="1" vertex="1">
          <mxGeometry x="185" y="3470" width="513" height="320" as="geometry" />
        </mxCell>
        <mxCell id="oL3jrjro8VqfyhITFRKU-150" style="rounded=0;orthogonalLoop=1;jettySize=auto;html=1;exitX=0.25;exitY=1;exitDx=0;exitDy=0;entryX=0.25;entryY=0;entryDx=0;entryDy=0;" parent="1" source="oL3jrjro8VqfyhITFRKU-151" target="oL3jrjro8VqfyhITFRKU-156" edge="1">
          <mxGeometry relative="1" as="geometry" />
        </mxCell>
        <mxCell id="oL3jrjro8VqfyhITFRKU-151" value="" style="rounded=1;whiteSpace=wrap;html=1;fillColor=#d5e8d4;strokeColor=#82b366;" parent="1" vertex="1">
          <mxGeometry x="115" y="2890" width="940" height="70" as="geometry" />
        </mxCell>
        <mxCell id="oL3jrjro8VqfyhITFRKU-152" value="&lt;b&gt;&lt;font style=&quot;font-size: 18px;&quot;&gt;1&lt;/font&gt;&lt;/b&gt;" style="rounded=1;whiteSpace=wrap;html=1;fillColor=#ffe6cc;strokeColor=#d79b00;" parent="1" vertex="1">
          <mxGeometry x="115" y="2890" width="150" height="70" as="geometry" />
        </mxCell>
        <mxCell id="oL3jrjro8VqfyhITFRKU-153" value="&lt;b&gt;&lt;font style=&quot;font-size: 18px;&quot;&gt;10&lt;/font&gt;&lt;/b&gt;" style="rounded=1;whiteSpace=wrap;html=1;fillColor=#ffe6cc;strokeColor=#d79b00;" parent="1" vertex="1">
          <mxGeometry x="465" y="2890" width="150" height="70" as="geometry" />
        </mxCell>
        <mxCell id="oL3jrjro8VqfyhITFRKU-154" value="&lt;b&gt;&lt;font style=&quot;font-size: 18px;&quot;&gt;20&lt;/font&gt;&lt;/b&gt;" style="rounded=1;whiteSpace=wrap;html=1;fillColor=#ffe6cc;strokeColor=#d79b00;" parent="1" vertex="1">
          <mxGeometry x="785" y="2890" width="130" height="70" as="geometry" />
        </mxCell>
        <mxCell id="oL3jrjro8VqfyhITFRKU-155" style="rounded=0;orthogonalLoop=1;jettySize=auto;html=1;exitX=0.25;exitY=1;exitDx=0;exitDy=0;entryX=0.429;entryY=-0.006;entryDx=0;entryDy=0;entryPerimeter=0;" parent="1" source="oL3jrjro8VqfyhITFRKU-156" target="oL3jrjro8VqfyhITFRKU-148" edge="1">
          <mxGeometry relative="1" as="geometry" />
        </mxCell>
        <mxCell id="oL3jrjro8VqfyhITFRKU-156" value="" style="rounded=1;whiteSpace=wrap;html=1;fillColor=#d5e8d4;strokeColor=#82b366;" parent="1" vertex="1">
          <mxGeometry x="-195" y="3180" width="820" height="70" as="geometry" />
        </mxCell>
        <mxCell id="oL3jrjro8VqfyhITFRKU-157" value="&lt;b&gt;&lt;font style=&quot;font-size: 18px;&quot;&gt;1&lt;/font&gt;&lt;/b&gt;" style="rounded=1;whiteSpace=wrap;html=1;fillColor=#ffe6cc;strokeColor=#d79b00;" parent="1" vertex="1">
          <mxGeometry x="-195" y="3180" width="150" height="70" as="geometry" />
        </mxCell>
        <mxCell id="oL3jrjro8VqfyhITFRKU-158" value="&lt;b&gt;&lt;font style=&quot;font-size: 18px;&quot;&gt;4&lt;/font&gt;&lt;/b&gt;" style="rounded=1;whiteSpace=wrap;html=1;fillColor=#ffe6cc;strokeColor=#d79b00;" parent="1" vertex="1">
          <mxGeometry x="75" y="3180" width="150" height="70" as="geometry" />
        </mxCell>
        <mxCell id="oL3jrjro8VqfyhITFRKU-159" value="&lt;b&gt;&lt;font style=&quot;font-size: 18px;&quot;&gt;7&lt;/font&gt;&lt;/b&gt;" style="rounded=1;whiteSpace=wrap;html=1;fillColor=#ffe6cc;strokeColor=#d79b00;" parent="1" vertex="1">
          <mxGeometry x="335" y="3180" width="150" height="70" as="geometry" />
        </mxCell>
        <mxCell id="oL3jrjro8VqfyhITFRKU-160" value="......" style="rounded=1;whiteSpace=wrap;html=1;" parent="1" vertex="1">
          <mxGeometry x="765" y="3185" width="120" height="60" as="geometry" />
        </mxCell>
        <mxCell id="oL3jrjro8VqfyhITFRKU-161" value="......" style="rounded=1;whiteSpace=wrap;html=1;" parent="1" vertex="1">
          <mxGeometry x="1085" y="3190" width="120" height="60" as="geometry" />
        </mxCell>
        <mxCell id="oL3jrjro8VqfyhITFRKU-162" value="" style="endArrow=classic;html=1;rounded=0;exitX=0.644;exitY=1.071;exitDx=0;exitDy=0;exitPerimeter=0;entryX=0.558;entryY=-0.017;entryDx=0;entryDy=0;entryPerimeter=0;" parent="1" source="oL3jrjro8VqfyhITFRKU-151" target="oL3jrjro8VqfyhITFRKU-160" edge="1">
          <mxGeometry width="50" height="50" relative="1" as="geometry">
            <mxPoint x="845" y="3050" as="sourcePoint" />
            <mxPoint x="895" y="3000" as="targetPoint" />
          </mxGeometry>
        </mxCell>
        <mxCell id="oL3jrjro8VqfyhITFRKU-163" value="" style="endArrow=classic;html=1;rounded=0;exitX=0.964;exitY=1;exitDx=0;exitDy=0;exitPerimeter=0;entryX=0.658;entryY=-0.067;entryDx=0;entryDy=0;entryPerimeter=0;" parent="1" source="oL3jrjro8VqfyhITFRKU-151" target="oL3jrjro8VqfyhITFRKU-161" edge="1">
          <mxGeometry width="50" height="50" relative="1" as="geometry">
            <mxPoint x="1115" y="3030" as="sourcePoint" />
            <mxPoint x="1165" y="2980" as="targetPoint" />
          </mxGeometry>
        </mxCell>
        <mxCell id="oL3jrjro8VqfyhITFRKU-164" value="" style="rounded=1;whiteSpace=wrap;html=1;" parent="1" vertex="1">
          <mxGeometry x="-398" y="3470" width="480" height="100" as="geometry" />
        </mxCell>
        <mxCell id="oL3jrjro8VqfyhITFRKU-165" value="" style="rounded=1;whiteSpace=wrap;html=1;" parent="1" vertex="1">
          <mxGeometry x="-398" y="3570" width="480" height="100" as="geometry" />
        </mxCell>
        <mxCell id="oL3jrjro8VqfyhITFRKU-166" value="" style="rounded=1;whiteSpace=wrap;html=1;" parent="1" vertex="1">
          <mxGeometry x="-398" y="3670" width="480" height="100" as="geometry" />
        </mxCell>
        <mxCell id="oL3jrjro8VqfyhITFRKU-167" value="&lt;b&gt;&lt;font style=&quot;font-size: 18px;&quot;&gt;1&lt;/font&gt;&lt;/b&gt;" style="rounded=1;whiteSpace=wrap;html=1;fillColor=#ffe6cc;strokeColor=#d79b00;" parent="1" vertex="1">
          <mxGeometry x="-395" y="3470" width="127" height="100" as="geometry" />
        </mxCell>
        <mxCell id="oL3jrjro8VqfyhITFRKU-168" value="&lt;b&gt;&lt;font style=&quot;font-size: 18px;&quot;&gt;0001&lt;/font&gt;&lt;/b&gt;" style="rounded=1;whiteSpace=wrap;html=1;fillColor=#ffe6cc;strokeColor=#d79b00;" parent="1" vertex="1">
          <mxGeometry x="-268" y="3470" width="113" height="100" as="geometry" />
        </mxCell>
        <mxCell id="oL3jrjro8VqfyhITFRKU-169" value="&lt;b&gt;&lt;font style=&quot;font-size: 18px;&quot;&gt;apple&lt;/font&gt;&lt;/b&gt;" style="rounded=1;whiteSpace=wrap;html=1;fillColor=#ffe6cc;strokeColor=#d79b00;" parent="1" vertex="1">
          <mxGeometry x="-155" y="3470" width="113" height="100" as="geometry" />
        </mxCell>
        <mxCell id="oL3jrjro8VqfyhITFRKU-170" value="&lt;b&gt;&lt;font style=&quot;font-size: 18px;&quot;&gt;6.00&lt;/font&gt;&lt;/b&gt;" style="rounded=1;whiteSpace=wrap;html=1;fillColor=#ffe6cc;strokeColor=#d79b00;" parent="1" vertex="1">
          <mxGeometry x="-42" y="3470" width="124" height="100" as="geometry" />
        </mxCell>
        <mxCell id="oL3jrjro8VqfyhITFRKU-171" value="&lt;b&gt;&lt;font style=&quot;font-size: 18px;&quot;&gt;2&lt;/font&gt;&lt;/b&gt;" style="rounded=1;whiteSpace=wrap;html=1;fillColor=#ffe6cc;strokeColor=#d79b00;" parent="1" vertex="1">
          <mxGeometry x="-396.5" y="3570" width="127" height="100" as="geometry" />
        </mxCell>
        <mxCell id="oL3jrjro8VqfyhITFRKU-172" value="&lt;b&gt;&lt;font style=&quot;font-size: 18px;&quot;&gt;0002&lt;/font&gt;&lt;/b&gt;" style="rounded=1;whiteSpace=wrap;html=1;fillColor=#ffe6cc;strokeColor=#d79b00;" parent="1" vertex="1">
          <mxGeometry x="-269.5" y="3570" width="113" height="100" as="geometry" />
        </mxCell>
        <mxCell id="oL3jrjro8VqfyhITFRKU-173" value="&lt;b&gt;&lt;font style=&quot;font-size: 18px;&quot;&gt;apple&lt;/font&gt;&lt;/b&gt;" style="rounded=1;whiteSpace=wrap;html=1;fillColor=#ffe6cc;strokeColor=#d79b00;" parent="1" vertex="1">
          <mxGeometry x="-156.5" y="3570" width="113" height="100" as="geometry" />
        </mxCell>
        <mxCell id="oL3jrjro8VqfyhITFRKU-174" value="&lt;b&gt;&lt;font style=&quot;font-size: 18px;&quot;&gt;6.00&lt;/font&gt;&lt;/b&gt;" style="rounded=1;whiteSpace=wrap;html=1;fillColor=#ffe6cc;strokeColor=#d79b00;" parent="1" vertex="1">
          <mxGeometry x="-43.5" y="3570" width="124" height="100" as="geometry" />
        </mxCell>
        <mxCell id="oL3jrjro8VqfyhITFRKU-175" style="edgeStyle=orthogonalEdgeStyle;rounded=0;orthogonalLoop=1;jettySize=auto;html=1;exitX=0.5;exitY=1;exitDx=0;exitDy=0;entryX=0;entryY=0.5;entryDx=0;entryDy=0;" parent="1" source="oL3jrjro8VqfyhITFRKU-176" target="oL3jrjro8VqfyhITFRKU-180" edge="1">
          <mxGeometry relative="1" as="geometry">
            <Array as="points">
              <mxPoint x="-333" y="3830" />
              <mxPoint x="135" y="3830" />
              <mxPoint x="135" y="3530" />
            </Array>
          </mxGeometry>
        </mxCell>
        <mxCell id="oL3jrjro8VqfyhITFRKU-176" value="&lt;b&gt;&lt;font style=&quot;font-size: 18px;&quot;&gt;3&lt;/font&gt;&lt;/b&gt;" style="rounded=1;whiteSpace=wrap;html=1;fillColor=#ffe6cc;strokeColor=#d79b00;" parent="1" vertex="1">
          <mxGeometry x="-396.5" y="3670" width="127" height="100" as="geometry" />
        </mxCell>
        <mxCell id="oL3jrjro8VqfyhITFRKU-177" value="&lt;b&gt;&lt;font style=&quot;font-size: 18px;&quot;&gt;0003&lt;/font&gt;&lt;/b&gt;" style="rounded=1;whiteSpace=wrap;html=1;fillColor=#ffe6cc;strokeColor=#d79b00;" parent="1" vertex="1">
          <mxGeometry x="-269.5" y="3670" width="113" height="100" as="geometry" />
        </mxCell>
        <mxCell id="oL3jrjro8VqfyhITFRKU-178" value="&lt;b&gt;&lt;font style=&quot;font-size: 18px;&quot;&gt;apple&lt;/font&gt;&lt;/b&gt;" style="rounded=1;whiteSpace=wrap;html=1;fillColor=#ffe6cc;strokeColor=#d79b00;" parent="1" vertex="1">
          <mxGeometry x="-156.5" y="3670" width="113" height="100" as="geometry" />
        </mxCell>
        <mxCell id="oL3jrjro8VqfyhITFRKU-179" value="&lt;b&gt;&lt;font style=&quot;font-size: 18px;&quot;&gt;6.00&lt;/font&gt;&lt;/b&gt;" style="rounded=1;whiteSpace=wrap;html=1;fillColor=#ffe6cc;strokeColor=#d79b00;" parent="1" vertex="1">
          <mxGeometry x="-43.5" y="3670" width="124" height="100" as="geometry" />
        </mxCell>
        <mxCell id="oL3jrjro8VqfyhITFRKU-180" value="" style="rounded=1;whiteSpace=wrap;html=1;" parent="1" vertex="1">
          <mxGeometry x="195" y="3480" width="480" height="100" as="geometry" />
        </mxCell>
        <mxCell id="oL3jrjro8VqfyhITFRKU-181" value="" style="rounded=1;whiteSpace=wrap;html=1;" parent="1" vertex="1">
          <mxGeometry x="195" y="3580" width="480" height="100" as="geometry" />
        </mxCell>
        <mxCell id="oL3jrjro8VqfyhITFRKU-182" value="" style="rounded=1;whiteSpace=wrap;html=1;" parent="1" vertex="1">
          <mxGeometry x="195" y="3680" width="480" height="100" as="geometry" />
        </mxCell>
        <mxCell id="oL3jrjro8VqfyhITFRKU-183" value="&lt;b&gt;&lt;font style=&quot;font-size: 18px;&quot;&gt;4&lt;/font&gt;&lt;/b&gt;" style="rounded=1;whiteSpace=wrap;html=1;fillColor=#ffe6cc;strokeColor=#d79b00;" parent="1" vertex="1">
          <mxGeometry x="198" y="3480" width="127" height="100" as="geometry" />
        </mxCell>
        <mxCell id="oL3jrjro8VqfyhITFRKU-184" value="&lt;b&gt;&lt;font style=&quot;font-size: 18px;&quot;&gt;...&lt;/font&gt;&lt;/b&gt;" style="rounded=1;whiteSpace=wrap;html=1;fillColor=#ffe6cc;strokeColor=#d79b00;" parent="1" vertex="1">
          <mxGeometry x="325" y="3480" width="113" height="100" as="geometry" />
        </mxCell>
        <mxCell id="oL3jrjro8VqfyhITFRKU-185" value="&lt;b&gt;&lt;font style=&quot;font-size: 18px;&quot;&gt;...&lt;/font&gt;&lt;/b&gt;" style="rounded=1;whiteSpace=wrap;html=1;fillColor=#ffe6cc;strokeColor=#d79b00;" parent="1" vertex="1">
          <mxGeometry x="438" y="3480" width="113" height="100" as="geometry" />
        </mxCell>
        <mxCell id="oL3jrjro8VqfyhITFRKU-186" value="&lt;b&gt;&lt;font style=&quot;font-size: 18px;&quot;&gt;...&lt;/font&gt;&lt;/b&gt;" style="rounded=1;whiteSpace=wrap;html=1;fillColor=#ffe6cc;strokeColor=#d79b00;" parent="1" vertex="1">
          <mxGeometry x="551" y="3480" width="124" height="100" as="geometry" />
        </mxCell>
        <mxCell id="oL3jrjro8VqfyhITFRKU-187" value="&lt;b&gt;&lt;font style=&quot;font-size: 18px;&quot;&gt;5&lt;/font&gt;&lt;/b&gt;" style="rounded=1;whiteSpace=wrap;html=1;fillColor=#ffe6cc;strokeColor=#d79b00;" parent="1" vertex="1">
          <mxGeometry x="196.5" y="3580" width="127" height="100" as="geometry" />
        </mxCell>
        <mxCell id="oL3jrjro8VqfyhITFRKU-188" value="&lt;b&gt;&lt;font style=&quot;font-size: 18px;&quot;&gt;...&lt;/font&gt;&lt;/b&gt;" style="rounded=1;whiteSpace=wrap;html=1;fillColor=#ffe6cc;strokeColor=#d79b00;" parent="1" vertex="1">
          <mxGeometry x="323.5" y="3580" width="113" height="100" as="geometry" />
        </mxCell>
        <mxCell id="oL3jrjro8VqfyhITFRKU-189" value="&lt;b&gt;&lt;font style=&quot;font-size: 18px;&quot;&gt;...&lt;/font&gt;&lt;/b&gt;" style="rounded=1;whiteSpace=wrap;html=1;fillColor=#ffe6cc;strokeColor=#d79b00;" parent="1" vertex="1">
          <mxGeometry x="436.5" y="3580" width="113" height="100" as="geometry" />
        </mxCell>
        <mxCell id="oL3jrjro8VqfyhITFRKU-190" value="&lt;b&gt;&lt;font style=&quot;font-size: 18px;&quot;&gt;...&lt;/font&gt;&lt;/b&gt;" style="rounded=1;whiteSpace=wrap;html=1;fillColor=#ffe6cc;strokeColor=#d79b00;" parent="1" vertex="1">
          <mxGeometry x="549.5" y="3580" width="124" height="100" as="geometry" />
        </mxCell>
        <mxCell id="oL3jrjro8VqfyhITFRKU-191" value="&lt;b&gt;&lt;font style=&quot;font-size: 18px;&quot;&gt;6&lt;/font&gt;&lt;/b&gt;" style="rounded=1;whiteSpace=wrap;html=1;fillColor=#ffe6cc;strokeColor=#d79b00;" parent="1" vertex="1">
          <mxGeometry x="196.5" y="3680" width="127" height="100" as="geometry" />
        </mxCell>
        <mxCell id="oL3jrjro8VqfyhITFRKU-192" value="&lt;b&gt;&lt;font style=&quot;font-size: 18px;&quot;&gt;...&lt;/font&gt;&lt;/b&gt;" style="rounded=1;whiteSpace=wrap;html=1;fillColor=#ffe6cc;strokeColor=#d79b00;" parent="1" vertex="1">
          <mxGeometry x="323.5" y="3680" width="113" height="100" as="geometry" />
        </mxCell>
        <mxCell id="oL3jrjro8VqfyhITFRKU-193" value="&lt;b&gt;&lt;font style=&quot;font-size: 18px;&quot;&gt;...&lt;/font&gt;&lt;/b&gt;" style="rounded=1;whiteSpace=wrap;html=1;fillColor=#ffe6cc;strokeColor=#d79b00;" parent="1" vertex="1">
          <mxGeometry x="436.5" y="3680" width="113" height="100" as="geometry" />
        </mxCell>
        <mxCell id="oL3jrjro8VqfyhITFRKU-194" value="&lt;b&gt;&lt;font style=&quot;font-size: 18px;&quot;&gt;...&lt;/font&gt;&lt;/b&gt;" style="rounded=1;whiteSpace=wrap;html=1;fillColor=#ffe6cc;strokeColor=#d79b00;" parent="1" vertex="1">
          <mxGeometry x="549.5" y="3680" width="124" height="100" as="geometry" />
        </mxCell>
        <mxCell id="oL3jrjro8VqfyhITFRKU-195" value="" style="rounded=1;whiteSpace=wrap;html=1;" parent="1" vertex="1">
          <mxGeometry x="765" y="3480" width="480" height="100" as="geometry" />
        </mxCell>
        <mxCell id="oL3jrjro8VqfyhITFRKU-196" value="" style="rounded=1;whiteSpace=wrap;html=1;" parent="1" vertex="1">
          <mxGeometry x="765" y="3580" width="480" height="100" as="geometry" />
        </mxCell>
        <mxCell id="oL3jrjro8VqfyhITFRKU-197" value="" style="rounded=1;whiteSpace=wrap;html=1;" parent="1" vertex="1">
          <mxGeometry x="765" y="3680" width="480" height="100" as="geometry" />
        </mxCell>
        <mxCell id="oL3jrjro8VqfyhITFRKU-198" value="&lt;b&gt;&lt;font style=&quot;font-size: 18px;&quot;&gt;7&lt;/font&gt;&lt;/b&gt;" style="rounded=1;whiteSpace=wrap;html=1;fillColor=#ffe6cc;strokeColor=#d79b00;" parent="1" vertex="1">
          <mxGeometry x="768" y="3480" width="127" height="100" as="geometry" />
        </mxCell>
        <mxCell id="oL3jrjro8VqfyhITFRKU-199" value="&lt;b&gt;&lt;font style=&quot;font-size: 18px;&quot;&gt;...&lt;/font&gt;&lt;/b&gt;" style="rounded=1;whiteSpace=wrap;html=1;fillColor=#ffe6cc;strokeColor=#d79b00;" parent="1" vertex="1">
          <mxGeometry x="895" y="3480" width="113" height="100" as="geometry" />
        </mxCell>
        <mxCell id="oL3jrjro8VqfyhITFRKU-200" value="&lt;b&gt;&lt;font style=&quot;font-size: 18px;&quot;&gt;...&lt;/font&gt;&lt;/b&gt;" style="rounded=1;whiteSpace=wrap;html=1;fillColor=#ffe6cc;strokeColor=#d79b00;" parent="1" vertex="1">
          <mxGeometry x="1008" y="3480" width="113" height="100" as="geometry" />
        </mxCell>
        <mxCell id="oL3jrjro8VqfyhITFRKU-201" value="&lt;b&gt;&lt;font style=&quot;font-size: 18px;&quot;&gt;...&lt;/font&gt;&lt;/b&gt;" style="rounded=1;whiteSpace=wrap;html=1;fillColor=#ffe6cc;strokeColor=#d79b00;" parent="1" vertex="1">
          <mxGeometry x="1121" y="3480" width="124" height="100" as="geometry" />
        </mxCell>
        <mxCell id="oL3jrjro8VqfyhITFRKU-202" value="&lt;b&gt;&lt;font style=&quot;font-size: 18px;&quot;&gt;8&lt;/font&gt;&lt;/b&gt;" style="rounded=1;whiteSpace=wrap;html=1;fillColor=#ffe6cc;strokeColor=#d79b00;" parent="1" vertex="1">
          <mxGeometry x="766.5" y="3580" width="127" height="100" as="geometry" />
        </mxCell>
        <mxCell id="oL3jrjro8VqfyhITFRKU-203" value="&lt;b&gt;&lt;font style=&quot;font-size: 18px;&quot;&gt;...&lt;/font&gt;&lt;/b&gt;" style="rounded=1;whiteSpace=wrap;html=1;fillColor=#ffe6cc;strokeColor=#d79b00;" parent="1" vertex="1">
          <mxGeometry x="893.5" y="3580" width="113" height="100" as="geometry" />
        </mxCell>
        <mxCell id="oL3jrjro8VqfyhITFRKU-204" value="&lt;b&gt;&lt;font style=&quot;font-size: 18px;&quot;&gt;...&lt;/font&gt;&lt;/b&gt;" style="rounded=1;whiteSpace=wrap;html=1;fillColor=#ffe6cc;strokeColor=#d79b00;" parent="1" vertex="1">
          <mxGeometry x="1006.5" y="3580" width="113" height="100" as="geometry" />
        </mxCell>
        <mxCell id="oL3jrjro8VqfyhITFRKU-205" value="&lt;b&gt;&lt;font style=&quot;font-size: 18px;&quot;&gt;...&lt;/font&gt;&lt;/b&gt;" style="rounded=1;whiteSpace=wrap;html=1;fillColor=#ffe6cc;strokeColor=#d79b00;" parent="1" vertex="1">
          <mxGeometry x="1119.5" y="3580" width="124" height="100" as="geometry" />
        </mxCell>
        <mxCell id="oL3jrjro8VqfyhITFRKU-206" value="&lt;b&gt;&lt;font style=&quot;font-size: 18px;&quot;&gt;9&lt;/font&gt;&lt;/b&gt;" style="rounded=1;whiteSpace=wrap;html=1;fillColor=#ffe6cc;strokeColor=#d79b00;" parent="1" vertex="1">
          <mxGeometry x="766.5" y="3680" width="127" height="100" as="geometry" />
        </mxCell>
        <mxCell id="oL3jrjro8VqfyhITFRKU-207" value="&lt;b&gt;&lt;font style=&quot;font-size: 18px;&quot;&gt;...&lt;/font&gt;&lt;/b&gt;" style="rounded=1;whiteSpace=wrap;html=1;fillColor=#ffe6cc;strokeColor=#d79b00;" parent="1" vertex="1">
          <mxGeometry x="893.5" y="3680" width="113" height="100" as="geometry" />
        </mxCell>
        <mxCell id="oL3jrjro8VqfyhITFRKU-208" value="&lt;b&gt;&lt;font style=&quot;font-size: 18px;&quot;&gt;...&lt;/font&gt;&lt;/b&gt;" style="rounded=1;whiteSpace=wrap;html=1;fillColor=#ffe6cc;strokeColor=#d79b00;" parent="1" vertex="1">
          <mxGeometry x="1006.5" y="3680" width="113" height="100" as="geometry" />
        </mxCell>
        <mxCell id="oL3jrjro8VqfyhITFRKU-209" value="&lt;b&gt;&lt;font style=&quot;font-size: 18px;&quot;&gt;...&lt;/font&gt;&lt;/b&gt;" style="rounded=1;whiteSpace=wrap;html=1;fillColor=#ffe6cc;strokeColor=#d79b00;" parent="1" vertex="1">
          <mxGeometry x="1119.5" y="3680" width="124" height="100" as="geometry" />
        </mxCell>
        <mxCell id="oL3jrjro8VqfyhITFRKU-210" value="" style="endArrow=classic;html=1;rounded=0;exitX=0.57;exitY=1;exitDx=0;exitDy=0;exitPerimeter=0;entryX=0.5;entryY=0;entryDx=0;entryDy=0;" parent="1" source="oL3jrjro8VqfyhITFRKU-156" target="oL3jrjro8VqfyhITFRKU-149" edge="1">
          <mxGeometry width="50" height="50" relative="1" as="geometry">
            <mxPoint x="325" y="3380" as="sourcePoint" />
            <mxPoint x="375" y="3330" as="targetPoint" />
          </mxGeometry>
        </mxCell>
        <mxCell id="oL3jrjro8VqfyhITFRKU-211" value="" style="endArrow=classic;html=1;rounded=0;exitX=0.93;exitY=1.043;exitDx=0;exitDy=0;exitPerimeter=0;entryX=0.489;entryY=-0.009;entryDx=0;entryDy=0;entryPerimeter=0;" parent="1" source="oL3jrjro8VqfyhITFRKU-156" target="oL3jrjro8VqfyhITFRKU-147" edge="1">
          <mxGeometry width="50" height="50" relative="1" as="geometry">
            <mxPoint x="785" y="3360" as="sourcePoint" />
            <mxPoint x="835" y="3310" as="targetPoint" />
          </mxGeometry>
        </mxCell>
        <mxCell id="oL3jrjro8VqfyhITFRKU-212" value="" style="endArrow=classic;html=1;rounded=0;entryX=0.25;entryY=1;entryDx=0;entryDy=0;exitX=0;exitY=0.75;exitDx=0;exitDy=0;" parent="1" source="oL3jrjro8VqfyhITFRKU-180" target="oL3jrjro8VqfyhITFRKU-176" edge="1">
          <mxGeometry width="50" height="50" relative="1" as="geometry">
            <mxPoint x="135" y="3880" as="sourcePoint" />
            <mxPoint x="185" y="3830" as="targetPoint" />
            <Array as="points">
              <mxPoint x="155" y="3555" />
              <mxPoint x="155" y="3900" />
              <mxPoint x="-365" y="3900" />
            </Array>
          </mxGeometry>
        </mxCell>
        <mxCell id="oL3jrjro8VqfyhITFRKU-213" value="" style="endArrow=classic;html=1;rounded=0;entryX=0.25;entryY=1;entryDx=0;entryDy=0;exitX=0;exitY=0.75;exitDx=0;exitDy=0;" parent="1" edge="1">
          <mxGeometry width="50" height="50" relative="1" as="geometry">
            <mxPoint x="773" y="3557.5" as="sourcePoint" />
            <mxPoint x="213" y="3772.5" as="targetPoint" />
            <Array as="points">
              <mxPoint x="733" y="3557.5" />
              <mxPoint x="733" y="3902.5" />
              <mxPoint x="213" y="3902.5" />
            </Array>
          </mxGeometry>
        </mxCell>
        <mxCell id="oL3jrjro8VqfyhITFRKU-214" style="edgeStyle=orthogonalEdgeStyle;rounded=0;orthogonalLoop=1;jettySize=auto;html=1;exitX=0.5;exitY=1;exitDx=0;exitDy=0;entryX=0;entryY=0.5;entryDx=0;entryDy=0;" parent="1" edge="1">
          <mxGeometry relative="1" as="geometry">
            <mxPoint x="245" y="3780" as="sourcePoint" />
            <mxPoint x="773" y="3540" as="targetPoint" />
            <Array as="points">
              <mxPoint x="245" y="3840" />
              <mxPoint x="713" y="3840" />
              <mxPoint x="713" y="3540" />
            </Array>
          </mxGeometry>
        </mxCell>
        <mxCell id="oL3jrjro8VqfyhITFRKU-215" value="&lt;b&gt;&lt;font style=&quot;font-size: 18px;&quot;&gt;回表&lt;/font&gt;&lt;/b&gt;" style="text;html=1;strokeColor=none;fillColor=none;align=center;verticalAlign=middle;whiteSpace=wrap;rounded=0;" parent="1" vertex="1">
          <mxGeometry x="-389.5" y="2850" width="233" height="30" as="geometry" />
        </mxCell>
        <mxCell id="oL3jrjro8VqfyhITFRKU-217" value="" style="rounded=1;whiteSpace=wrap;html=1;fillColor=#d5e8d4;strokeColor=#82b366;" parent="1" vertex="1">
          <mxGeometry x="2820" y="3510" width="260" height="320" as="geometry" />
        </mxCell>
        <mxCell id="oL3jrjro8VqfyhITFRKU-218" value="" style="rounded=1;whiteSpace=wrap;html=1;fillColor=#d5e8d4;strokeColor=#82b366;" parent="1" vertex="1">
          <mxGeometry x="1657" y="3500" width="263" height="320" as="geometry" />
        </mxCell>
        <mxCell id="oL3jrjro8VqfyhITFRKU-219" value="" style="rounded=1;whiteSpace=wrap;html=1;fillColor=#d5e8d4;strokeColor=#82b366;" parent="1" vertex="1">
          <mxGeometry x="2250" y="3510" width="260" height="320" as="geometry" />
        </mxCell>
        <mxCell id="oL3jrjro8VqfyhITFRKU-220" style="rounded=0;orthogonalLoop=1;jettySize=auto;html=1;exitX=0.25;exitY=1;exitDx=0;exitDy=0;entryX=0.25;entryY=0;entryDx=0;entryDy=0;" parent="1" source="oL3jrjro8VqfyhITFRKU-221" target="oL3jrjro8VqfyhITFRKU-226" edge="1">
          <mxGeometry relative="1" as="geometry" />
        </mxCell>
        <mxCell id="oL3jrjro8VqfyhITFRKU-221" value="" style="rounded=1;whiteSpace=wrap;html=1;fillColor=#d5e8d4;strokeColor=#82b366;" parent="1" vertex="1">
          <mxGeometry x="2180" y="2930" width="940" height="70" as="geometry" />
        </mxCell>
        <mxCell id="oL3jrjro8VqfyhITFRKU-222" value="&lt;b&gt;&lt;font style=&quot;font-size: 18px;&quot;&gt;0001&lt;/font&gt;&lt;/b&gt;" style="rounded=1;whiteSpace=wrap;html=1;fillColor=#ffe6cc;strokeColor=#d79b00;" parent="1" vertex="1">
          <mxGeometry x="2180" y="2930" width="150" height="70" as="geometry" />
        </mxCell>
        <mxCell id="oL3jrjro8VqfyhITFRKU-223" value="&lt;b&gt;&lt;font style=&quot;font-size: 18px;&quot;&gt;0010&lt;/font&gt;&lt;/b&gt;" style="rounded=1;whiteSpace=wrap;html=1;fillColor=#ffe6cc;strokeColor=#d79b00;" parent="1" vertex="1">
          <mxGeometry x="2530" y="2930" width="150" height="70" as="geometry" />
        </mxCell>
        <mxCell id="oL3jrjro8VqfyhITFRKU-224" value="&lt;b&gt;&lt;font style=&quot;font-size: 18px;&quot;&gt;0020&lt;/font&gt;&lt;/b&gt;" style="rounded=1;whiteSpace=wrap;html=1;fillColor=#ffe6cc;strokeColor=#d79b00;" parent="1" vertex="1">
          <mxGeometry x="2850" y="2930" width="130" height="70" as="geometry" />
        </mxCell>
        <mxCell id="oL3jrjro8VqfyhITFRKU-225" style="rounded=0;orthogonalLoop=1;jettySize=auto;html=1;exitX=0.25;exitY=1;exitDx=0;exitDy=0;entryX=0.429;entryY=-0.006;entryDx=0;entryDy=0;entryPerimeter=0;" parent="1" source="oL3jrjro8VqfyhITFRKU-226" target="oL3jrjro8VqfyhITFRKU-218" edge="1">
          <mxGeometry relative="1" as="geometry" />
        </mxCell>
        <mxCell id="oL3jrjro8VqfyhITFRKU-226" value="" style="rounded=1;whiteSpace=wrap;html=1;fillColor=#d5e8d4;strokeColor=#82b366;" parent="1" vertex="1">
          <mxGeometry x="1870" y="3220" width="820" height="70" as="geometry" />
        </mxCell>
        <mxCell id="oL3jrjro8VqfyhITFRKU-227" value="&lt;b&gt;&lt;font style=&quot;font-size: 18px;&quot;&gt;0001&lt;/font&gt;&lt;/b&gt;" style="rounded=1;whiteSpace=wrap;html=1;fillColor=#ffe6cc;strokeColor=#d79b00;" parent="1" vertex="1">
          <mxGeometry x="1870" y="3220" width="150" height="70" as="geometry" />
        </mxCell>
        <mxCell id="oL3jrjro8VqfyhITFRKU-228" value="&lt;b&gt;&lt;font style=&quot;font-size: 18px;&quot;&gt;0004&lt;/font&gt;&lt;/b&gt;" style="rounded=1;whiteSpace=wrap;html=1;fillColor=#ffe6cc;strokeColor=#d79b00;" parent="1" vertex="1">
          <mxGeometry x="2140" y="3220" width="150" height="70" as="geometry" />
        </mxCell>
        <mxCell id="oL3jrjro8VqfyhITFRKU-229" value="&lt;b&gt;&lt;font style=&quot;font-size: 18px;&quot;&gt;0007&lt;/font&gt;&lt;/b&gt;" style="rounded=1;whiteSpace=wrap;html=1;fillColor=#ffe6cc;strokeColor=#d79b00;" parent="1" vertex="1">
          <mxGeometry x="2400" y="3220" width="150" height="70" as="geometry" />
        </mxCell>
        <mxCell id="oL3jrjro8VqfyhITFRKU-230" value="......" style="rounded=1;whiteSpace=wrap;html=1;" parent="1" vertex="1">
          <mxGeometry x="2830" y="3225" width="120" height="60" as="geometry" />
        </mxCell>
        <mxCell id="oL3jrjro8VqfyhITFRKU-231" value="......" style="rounded=1;whiteSpace=wrap;html=1;" parent="1" vertex="1">
          <mxGeometry x="3150" y="3230" width="120" height="60" as="geometry" />
        </mxCell>
        <mxCell id="oL3jrjro8VqfyhITFRKU-232" value="" style="endArrow=classic;html=1;rounded=0;exitX=0.644;exitY=1.071;exitDx=0;exitDy=0;exitPerimeter=0;entryX=0.558;entryY=-0.017;entryDx=0;entryDy=0;entryPerimeter=0;" parent="1" source="oL3jrjro8VqfyhITFRKU-221" target="oL3jrjro8VqfyhITFRKU-230" edge="1">
          <mxGeometry width="50" height="50" relative="1" as="geometry">
            <mxPoint x="2910" y="3090" as="sourcePoint" />
            <mxPoint x="2960" y="3040" as="targetPoint" />
          </mxGeometry>
        </mxCell>
        <mxCell id="oL3jrjro8VqfyhITFRKU-233" value="" style="endArrow=classic;html=1;rounded=0;exitX=0.964;exitY=1;exitDx=0;exitDy=0;exitPerimeter=0;entryX=0.658;entryY=-0.067;entryDx=0;entryDy=0;entryPerimeter=0;" parent="1" source="oL3jrjro8VqfyhITFRKU-221" target="oL3jrjro8VqfyhITFRKU-231" edge="1">
          <mxGeometry width="50" height="50" relative="1" as="geometry">
            <mxPoint x="3180" y="3070" as="sourcePoint" />
            <mxPoint x="3230" y="3020" as="targetPoint" />
          </mxGeometry>
        </mxCell>
        <mxCell id="oL3jrjro8VqfyhITFRKU-234" value="" style="rounded=1;whiteSpace=wrap;html=1;" parent="1" vertex="1">
          <mxGeometry x="1667" y="3510" width="243" height="100" as="geometry" />
        </mxCell>
        <mxCell id="oL3jrjro8VqfyhITFRKU-235" value="" style="rounded=1;whiteSpace=wrap;html=1;" parent="1" vertex="1">
          <mxGeometry x="1667" y="3610" width="243" height="100" as="geometry" />
        </mxCell>
        <mxCell id="oL3jrjro8VqfyhITFRKU-236" value="" style="rounded=1;whiteSpace=wrap;html=1;" parent="1" vertex="1">
          <mxGeometry x="1667" y="3710" width="243" height="100" as="geometry" />
        </mxCell>
        <mxCell id="oL3jrjro8VqfyhITFRKU-237" value="&lt;b&gt;&lt;font style=&quot;font-size: 18px;&quot;&gt;0001&lt;/font&gt;&lt;/b&gt;" style="rounded=1;whiteSpace=wrap;html=1;fillColor=#ffe6cc;strokeColor=#d79b00;" parent="1" vertex="1">
          <mxGeometry x="1670" y="3510" width="127" height="100" as="geometry" />
        </mxCell>
        <mxCell id="oL3jrjro8VqfyhITFRKU-238" value="&lt;b&gt;&lt;font style=&quot;font-size: 18px;&quot;&gt;1&lt;/font&gt;&lt;/b&gt;" style="rounded=1;whiteSpace=wrap;html=1;fillColor=#ffe6cc;strokeColor=#d79b00;" parent="1" vertex="1">
          <mxGeometry x="1797" y="3510" width="113" height="100" as="geometry" />
        </mxCell>
        <mxCell id="oL3jrjro8VqfyhITFRKU-239" value="&lt;b&gt;&lt;font style=&quot;font-size: 18px;&quot;&gt;0002&lt;/font&gt;&lt;/b&gt;" style="rounded=1;whiteSpace=wrap;html=1;fillColor=#ffe6cc;strokeColor=#d79b00;" parent="1" vertex="1">
          <mxGeometry x="1668.5" y="3610" width="127" height="100" as="geometry" />
        </mxCell>
        <mxCell id="oL3jrjro8VqfyhITFRKU-240" value="&lt;b&gt;&lt;font style=&quot;font-size: 18px;&quot;&gt;2&lt;/font&gt;&lt;/b&gt;" style="rounded=1;whiteSpace=wrap;html=1;fillColor=#ffe6cc;strokeColor=#d79b00;" parent="1" vertex="1">
          <mxGeometry x="1795.5" y="3610" width="113" height="100" as="geometry" />
        </mxCell>
        <mxCell id="oL3jrjro8VqfyhITFRKU-241" style="edgeStyle=orthogonalEdgeStyle;rounded=0;orthogonalLoop=1;jettySize=auto;html=1;exitX=0.5;exitY=1;exitDx=0;exitDy=0;entryX=0;entryY=0.5;entryDx=0;entryDy=0;" parent="1" source="oL3jrjro8VqfyhITFRKU-242" target="oL3jrjro8VqfyhITFRKU-244" edge="1">
          <mxGeometry relative="1" as="geometry">
            <Array as="points">
              <mxPoint x="1732" y="3870" />
              <mxPoint x="2200" y="3870" />
              <mxPoint x="2200" y="3570" />
            </Array>
          </mxGeometry>
        </mxCell>
        <mxCell id="oL3jrjro8VqfyhITFRKU-242" value="&lt;b&gt;&lt;font style=&quot;font-size: 18px;&quot;&gt;00003&lt;/font&gt;&lt;/b&gt;" style="rounded=1;whiteSpace=wrap;html=1;fillColor=#ffe6cc;strokeColor=#d79b00;" parent="1" vertex="1">
          <mxGeometry x="1668.5" y="3710" width="127" height="100" as="geometry" />
        </mxCell>
        <mxCell id="oL3jrjro8VqfyhITFRKU-243" value="&lt;b&gt;&lt;font style=&quot;font-size: 18px;&quot;&gt;3&lt;/font&gt;&lt;/b&gt;" style="rounded=1;whiteSpace=wrap;html=1;fillColor=#ffe6cc;strokeColor=#d79b00;" parent="1" vertex="1">
          <mxGeometry x="1795.5" y="3710" width="113" height="100" as="geometry" />
        </mxCell>
        <mxCell id="oL3jrjro8VqfyhITFRKU-244" value="" style="rounded=1;whiteSpace=wrap;html=1;" parent="1" vertex="1">
          <mxGeometry x="2260" y="3520" width="240" height="100" as="geometry" />
        </mxCell>
        <mxCell id="oL3jrjro8VqfyhITFRKU-245" value="" style="rounded=1;whiteSpace=wrap;html=1;" parent="1" vertex="1">
          <mxGeometry x="2260" y="3620" width="240" height="100" as="geometry" />
        </mxCell>
        <mxCell id="oL3jrjro8VqfyhITFRKU-246" value="" style="rounded=1;whiteSpace=wrap;html=1;" parent="1" vertex="1">
          <mxGeometry x="2260" y="3720" width="240" height="100" as="geometry" />
        </mxCell>
        <mxCell id="oL3jrjro8VqfyhITFRKU-247" value="&lt;b&gt;&lt;font style=&quot;font-size: 18px;&quot;&gt;0004&lt;/font&gt;&lt;/b&gt;" style="rounded=1;whiteSpace=wrap;html=1;fillColor=#ffe6cc;strokeColor=#d79b00;" parent="1" vertex="1">
          <mxGeometry x="2263" y="3520" width="127" height="100" as="geometry" />
        </mxCell>
        <mxCell id="oL3jrjro8VqfyhITFRKU-248" value="&lt;b&gt;&lt;font style=&quot;font-size: 18px;&quot;&gt;4&lt;/font&gt;&lt;/b&gt;" style="rounded=1;whiteSpace=wrap;html=1;fillColor=#ffe6cc;strokeColor=#d79b00;" parent="1" vertex="1">
          <mxGeometry x="2390" y="3520" width="113" height="100" as="geometry" />
        </mxCell>
        <mxCell id="oL3jrjro8VqfyhITFRKU-249" value="&lt;b&gt;&lt;font style=&quot;font-size: 18px;&quot;&gt;0005&lt;/font&gt;&lt;/b&gt;" style="rounded=1;whiteSpace=wrap;html=1;fillColor=#ffe6cc;strokeColor=#d79b00;" parent="1" vertex="1">
          <mxGeometry x="2261.5" y="3620" width="127" height="100" as="geometry" />
        </mxCell>
        <mxCell id="oL3jrjro8VqfyhITFRKU-250" value="&lt;b&gt;&lt;font style=&quot;font-size: 18px;&quot;&gt;5&lt;/font&gt;&lt;/b&gt;" style="rounded=1;whiteSpace=wrap;html=1;fillColor=#ffe6cc;strokeColor=#d79b00;" parent="1" vertex="1">
          <mxGeometry x="2388.5" y="3620" width="113" height="100" as="geometry" />
        </mxCell>
        <mxCell id="oL3jrjro8VqfyhITFRKU-251" value="&lt;b&gt;&lt;font style=&quot;font-size: 18px;&quot;&gt;0006&lt;/font&gt;&lt;/b&gt;" style="rounded=1;whiteSpace=wrap;html=1;fillColor=#ffe6cc;strokeColor=#d79b00;" parent="1" vertex="1">
          <mxGeometry x="2261.5" y="3720" width="127" height="100" as="geometry" />
        </mxCell>
        <mxCell id="oL3jrjro8VqfyhITFRKU-252" value="&lt;b&gt;&lt;font style=&quot;font-size: 18px;&quot;&gt;6&lt;/font&gt;&lt;/b&gt;" style="rounded=1;whiteSpace=wrap;html=1;fillColor=#ffe6cc;strokeColor=#d79b00;" parent="1" vertex="1">
          <mxGeometry x="2388.5" y="3720" width="113" height="100" as="geometry" />
        </mxCell>
        <mxCell id="oL3jrjro8VqfyhITFRKU-253" value="" style="rounded=1;whiteSpace=wrap;html=1;" parent="1" vertex="1">
          <mxGeometry x="2830" y="3520" width="240" height="100" as="geometry" />
        </mxCell>
        <mxCell id="oL3jrjro8VqfyhITFRKU-254" value="" style="rounded=1;whiteSpace=wrap;html=1;" parent="1" vertex="1">
          <mxGeometry x="2830" y="3620" width="240" height="100" as="geometry" />
        </mxCell>
        <mxCell id="oL3jrjro8VqfyhITFRKU-255" value="" style="rounded=1;whiteSpace=wrap;html=1;" parent="1" vertex="1">
          <mxGeometry x="2830" y="3720" width="240" height="100" as="geometry" />
        </mxCell>
        <mxCell id="oL3jrjro8VqfyhITFRKU-256" value="&lt;b&gt;&lt;font style=&quot;font-size: 18px;&quot;&gt;0007&lt;/font&gt;&lt;/b&gt;" style="rounded=1;whiteSpace=wrap;html=1;fillColor=#ffe6cc;strokeColor=#d79b00;" parent="1" vertex="1">
          <mxGeometry x="2833" y="3520" width="127" height="100" as="geometry" />
        </mxCell>
        <mxCell id="oL3jrjro8VqfyhITFRKU-257" value="&lt;b&gt;&lt;font style=&quot;font-size: 18px;&quot;&gt;7&lt;/font&gt;&lt;/b&gt;" style="rounded=1;whiteSpace=wrap;html=1;fillColor=#ffe6cc;strokeColor=#d79b00;" parent="1" vertex="1">
          <mxGeometry x="2960" y="3520" width="113" height="100" as="geometry" />
        </mxCell>
        <mxCell id="oL3jrjro8VqfyhITFRKU-258" value="&lt;b&gt;&lt;font style=&quot;font-size: 18px;&quot;&gt;0008&lt;/font&gt;&lt;/b&gt;" style="rounded=1;whiteSpace=wrap;html=1;fillColor=#ffe6cc;strokeColor=#d79b00;" parent="1" vertex="1">
          <mxGeometry x="2831.5" y="3620" width="127" height="100" as="geometry" />
        </mxCell>
        <mxCell id="oL3jrjro8VqfyhITFRKU-259" value="&lt;b&gt;&lt;font style=&quot;font-size: 18px;&quot;&gt;8&lt;/font&gt;&lt;/b&gt;" style="rounded=1;whiteSpace=wrap;html=1;fillColor=#ffe6cc;strokeColor=#d79b00;" parent="1" vertex="1">
          <mxGeometry x="2958.5" y="3620" width="113" height="100" as="geometry" />
        </mxCell>
        <mxCell id="oL3jrjro8VqfyhITFRKU-260" value="&lt;b&gt;&lt;font style=&quot;font-size: 18px;&quot;&gt;0009&lt;/font&gt;&lt;/b&gt;" style="rounded=1;whiteSpace=wrap;html=1;fillColor=#ffe6cc;strokeColor=#d79b00;" parent="1" vertex="1">
          <mxGeometry x="2831.5" y="3720" width="127" height="100" as="geometry" />
        </mxCell>
        <mxCell id="oL3jrjro8VqfyhITFRKU-261" value="&lt;b&gt;&lt;font style=&quot;font-size: 18px;&quot;&gt;9&lt;/font&gt;&lt;/b&gt;" style="rounded=1;whiteSpace=wrap;html=1;fillColor=#ffe6cc;strokeColor=#d79b00;" parent="1" vertex="1">
          <mxGeometry x="2958.5" y="3720" width="113" height="100" as="geometry" />
        </mxCell>
        <mxCell id="oL3jrjro8VqfyhITFRKU-262" value="" style="endArrow=classic;html=1;rounded=0;exitX=0.57;exitY=1;exitDx=0;exitDy=0;exitPerimeter=0;entryX=0.5;entryY=0;entryDx=0;entryDy=0;" parent="1" source="oL3jrjro8VqfyhITFRKU-226" target="oL3jrjro8VqfyhITFRKU-219" edge="1">
          <mxGeometry width="50" height="50" relative="1" as="geometry">
            <mxPoint x="2390" y="3420" as="sourcePoint" />
            <mxPoint x="2440" y="3370" as="targetPoint" />
          </mxGeometry>
        </mxCell>
        <mxCell id="oL3jrjro8VqfyhITFRKU-263" value="" style="endArrow=classic;html=1;rounded=0;exitX=0.93;exitY=1.043;exitDx=0;exitDy=0;exitPerimeter=0;entryX=0.489;entryY=-0.009;entryDx=0;entryDy=0;entryPerimeter=0;" parent="1" source="oL3jrjro8VqfyhITFRKU-226" target="oL3jrjro8VqfyhITFRKU-217" edge="1">
          <mxGeometry width="50" height="50" relative="1" as="geometry">
            <mxPoint x="2850" y="3400" as="sourcePoint" />
            <mxPoint x="2900" y="3350" as="targetPoint" />
          </mxGeometry>
        </mxCell>
        <mxCell id="oL3jrjro8VqfyhITFRKU-264" value="" style="endArrow=classic;html=1;rounded=0;entryX=0.25;entryY=1;entryDx=0;entryDy=0;exitX=0;exitY=0.75;exitDx=0;exitDy=0;" parent="1" source="oL3jrjro8VqfyhITFRKU-244" target="oL3jrjro8VqfyhITFRKU-242" edge="1">
          <mxGeometry width="50" height="50" relative="1" as="geometry">
            <mxPoint x="2200" y="3920" as="sourcePoint" />
            <mxPoint x="2250" y="3870" as="targetPoint" />
            <Array as="points">
              <mxPoint x="2220" y="3595" />
              <mxPoint x="2220" y="3940" />
              <mxPoint x="1700" y="3940" />
            </Array>
          </mxGeometry>
        </mxCell>
        <mxCell id="oL3jrjro8VqfyhITFRKU-265" value="" style="endArrow=classic;html=1;rounded=0;entryX=0.25;entryY=1;entryDx=0;entryDy=0;exitX=0;exitY=0.75;exitDx=0;exitDy=0;" parent="1" edge="1">
          <mxGeometry width="50" height="50" relative="1" as="geometry">
            <mxPoint x="2838" y="3597.5" as="sourcePoint" />
            <mxPoint x="2278" y="3812.5" as="targetPoint" />
            <Array as="points">
              <mxPoint x="2798" y="3597.5" />
              <mxPoint x="2798" y="3942.5" />
              <mxPoint x="2278" y="3942.5" />
            </Array>
          </mxGeometry>
        </mxCell>
        <mxCell id="oL3jrjro8VqfyhITFRKU-266" style="edgeStyle=orthogonalEdgeStyle;rounded=0;orthogonalLoop=1;jettySize=auto;html=1;exitX=0.5;exitY=1;exitDx=0;exitDy=0;entryX=0;entryY=0.5;entryDx=0;entryDy=0;" parent="1" edge="1">
          <mxGeometry relative="1" as="geometry">
            <mxPoint x="2310" y="3820" as="sourcePoint" />
            <mxPoint x="2838" y="3580" as="targetPoint" />
            <Array as="points">
              <mxPoint x="2310" y="3880" />
              <mxPoint x="2778" y="3880" />
              <mxPoint x="2778" y="3580" />
            </Array>
          </mxGeometry>
        </mxCell>
        <mxCell id="oL3jrjro8VqfyhITFRKU-268" value="" style="endArrow=classic;html=1;rounded=0;exitX=0;exitY=0.5;exitDx=0;exitDy=0;entryX=0.25;entryY=0;entryDx=0;entryDy=0;dashed=1;fillColor=#d80073;strokeColor=#A50040;jumpSize=10;" parent="1" source="oL3jrjro8VqfyhITFRKU-218" target="oL3jrjro8VqfyhITFRKU-146" edge="1">
          <mxGeometry width="50" height="50" relative="1" as="geometry">
            <mxPoint x="1540" y="3470" as="sourcePoint" />
            <mxPoint x="1590" y="3420" as="targetPoint" />
            <Array as="points">
              <mxPoint x="1410" y="2890" />
            </Array>
          </mxGeometry>
        </mxCell>
        <mxCell id="oL3jrjro8VqfyhITFRKU-270" value="&lt;b&gt;&lt;font style=&quot;font-size: 24px;&quot;&gt;回表&lt;/font&gt;&lt;/b&gt;" style="text;html=1;strokeColor=none;fillColor=none;align=center;verticalAlign=middle;whiteSpace=wrap;rounded=0;" parent="1" vertex="1">
          <mxGeometry x="1430" y="3030" width="60" height="30" as="geometry" />
        </mxCell>
        <mxCell id="oL3jrjro8VqfyhITFRKU-271" value="" style="rounded=0;whiteSpace=wrap;html=1;fillColor=#f5f5f5;fontColor=#333333;strokeColor=#666666;" parent="1" vertex="1">
          <mxGeometry x="-483.5" y="4190" width="1840" height="1250" as="geometry" />
        </mxCell>
        <mxCell id="oL3jrjro8VqfyhITFRKU-272" value="" style="rounded=1;whiteSpace=wrap;html=1;fillColor=#d5e8d4;strokeColor=#82b366;" parent="1" vertex="1">
          <mxGeometry x="750" y="4890" width="370" height="320" as="geometry" />
        </mxCell>
        <mxCell id="oL3jrjro8VqfyhITFRKU-273" value="" style="rounded=1;whiteSpace=wrap;html=1;fillColor=#d5e8d4;strokeColor=#82b366;" parent="1" vertex="1">
          <mxGeometry x="-413" y="4880" width="373" height="320" as="geometry" />
        </mxCell>
        <mxCell id="oL3jrjro8VqfyhITFRKU-274" value="" style="rounded=1;whiteSpace=wrap;html=1;fillColor=#d5e8d4;strokeColor=#82b366;" parent="1" vertex="1">
          <mxGeometry x="180" y="4890" width="370" height="320" as="geometry" />
        </mxCell>
        <mxCell id="oL3jrjro8VqfyhITFRKU-275" style="rounded=0;orthogonalLoop=1;jettySize=auto;html=1;entryX=0.25;entryY=0;entryDx=0;entryDy=0;exitX=0.232;exitY=0.986;exitDx=0;exitDy=0;exitPerimeter=0;" parent="1" source="oL3jrjro8VqfyhITFRKU-323" target="oL3jrjro8VqfyhITFRKU-281" edge="1">
          <mxGeometry relative="1" as="geometry">
            <mxPoint x="210" y="4470" as="sourcePoint" />
          </mxGeometry>
        </mxCell>
        <mxCell id="oL3jrjro8VqfyhITFRKU-276" value="" style="rounded=1;whiteSpace=wrap;html=1;fillColor=#d5e8d4;strokeColor=#82b366;" parent="1" vertex="1">
          <mxGeometry x="110" y="4310" width="940" height="70" as="geometry" />
        </mxCell>
        <mxCell id="oL3jrjro8VqfyhITFRKU-277" value="&lt;b&gt;&lt;font style=&quot;font-size: 18px;&quot;&gt;0001&lt;/font&gt;&lt;/b&gt;" style="rounded=1;whiteSpace=wrap;html=1;fillColor=#ffe6cc;strokeColor=#d79b00;" parent="1" vertex="1">
          <mxGeometry x="110" y="4310" width="150" height="70" as="geometry" />
        </mxCell>
        <mxCell id="oL3jrjro8VqfyhITFRKU-278" value="&lt;b&gt;&lt;font style=&quot;font-size: 18px;&quot;&gt;0010&lt;/font&gt;&lt;/b&gt;" style="rounded=1;whiteSpace=wrap;html=1;fillColor=#ffe6cc;strokeColor=#d79b00;" parent="1" vertex="1">
          <mxGeometry x="460" y="4310" width="150" height="70" as="geometry" />
        </mxCell>
        <mxCell id="oL3jrjro8VqfyhITFRKU-279" value="&lt;b&gt;&lt;font style=&quot;font-size: 18px;&quot;&gt;0020&lt;/font&gt;&lt;/b&gt;" style="rounded=1;whiteSpace=wrap;html=1;fillColor=#ffe6cc;strokeColor=#d79b00;" parent="1" vertex="1">
          <mxGeometry x="780" y="4310" width="130" height="70" as="geometry" />
        </mxCell>
        <mxCell id="oL3jrjro8VqfyhITFRKU-280" style="rounded=0;orthogonalLoop=1;jettySize=auto;html=1;entryX=0.429;entryY=-0.006;entryDx=0;entryDy=0;entryPerimeter=0;exitX=0.25;exitY=1;exitDx=0;exitDy=0;" parent="1" source="oL3jrjro8VqfyhITFRKU-327" target="oL3jrjro8VqfyhITFRKU-273" edge="1">
          <mxGeometry relative="1" as="geometry">
            <mxPoint x="-110" y="4750" as="sourcePoint" />
          </mxGeometry>
        </mxCell>
        <mxCell id="oL3jrjro8VqfyhITFRKU-281" value="" style="rounded=1;whiteSpace=wrap;html=1;fillColor=#d5e8d4;strokeColor=#82b366;" parent="1" vertex="1">
          <mxGeometry x="-200" y="4600" width="820" height="70" as="geometry" />
        </mxCell>
        <mxCell id="oL3jrjro8VqfyhITFRKU-282" value="&lt;b&gt;&lt;font style=&quot;font-size: 18px;&quot;&gt;0001&lt;/font&gt;&lt;/b&gt;" style="rounded=1;whiteSpace=wrap;html=1;fillColor=#ffe6cc;strokeColor=#d79b00;" parent="1" vertex="1">
          <mxGeometry x="-200" y="4600" width="150" height="70" as="geometry" />
        </mxCell>
        <mxCell id="oL3jrjro8VqfyhITFRKU-283" value="&lt;b&gt;&lt;font style=&quot;font-size: 18px;&quot;&gt;0004&lt;/font&gt;&lt;/b&gt;" style="rounded=1;whiteSpace=wrap;html=1;fillColor=#ffe6cc;strokeColor=#d79b00;" parent="1" vertex="1">
          <mxGeometry x="70" y="4600" width="150" height="70" as="geometry" />
        </mxCell>
        <mxCell id="oL3jrjro8VqfyhITFRKU-284" value="&lt;b&gt;&lt;font style=&quot;font-size: 18px;&quot;&gt;0007&lt;/font&gt;&lt;/b&gt;" style="rounded=1;whiteSpace=wrap;html=1;fillColor=#ffe6cc;strokeColor=#d79b00;" parent="1" vertex="1">
          <mxGeometry x="330" y="4600" width="150" height="70" as="geometry" />
        </mxCell>
        <mxCell id="oL3jrjro8VqfyhITFRKU-285" value="......" style="rounded=1;whiteSpace=wrap;html=1;" parent="1" vertex="1">
          <mxGeometry x="785" y="4640" width="120" height="60" as="geometry" />
        </mxCell>
        <mxCell id="oL3jrjro8VqfyhITFRKU-286" value="......" style="rounded=1;whiteSpace=wrap;html=1;" parent="1" vertex="1">
          <mxGeometry x="1100" y="4640" width="120" height="60" as="geometry" />
        </mxCell>
        <mxCell id="oL3jrjro8VqfyhITFRKU-287" value="" style="endArrow=classic;html=1;rounded=0;entryX=0.558;entryY=-0.017;entryDx=0;entryDy=0;entryPerimeter=0;exitX=0.623;exitY=1.012;exitDx=0;exitDy=0;exitPerimeter=0;" parent="1" source="oL3jrjro8VqfyhITFRKU-323" target="oL3jrjro8VqfyhITFRKU-285" edge="1">
          <mxGeometry width="50" height="50" relative="1" as="geometry">
            <mxPoint x="770" y="4490" as="sourcePoint" />
            <mxPoint x="890" y="4420" as="targetPoint" />
          </mxGeometry>
        </mxCell>
        <mxCell id="oL3jrjro8VqfyhITFRKU-288" value="" style="endArrow=classic;html=1;rounded=0;entryX=0.658;entryY=-0.067;entryDx=0;entryDy=0;entryPerimeter=0;exitX=0.93;exitY=1.012;exitDx=0;exitDy=0;exitPerimeter=0;" parent="1" source="oL3jrjro8VqfyhITFRKU-323" target="oL3jrjro8VqfyhITFRKU-286" edge="1">
          <mxGeometry width="50" height="50" relative="1" as="geometry">
            <mxPoint x="1090" y="4490" as="sourcePoint" />
            <mxPoint x="1160" y="4400" as="targetPoint" />
          </mxGeometry>
        </mxCell>
        <mxCell id="oL3jrjro8VqfyhITFRKU-289" value="" style="rounded=1;whiteSpace=wrap;html=1;" parent="1" vertex="1">
          <mxGeometry x="-403" y="4890" width="243" height="100" as="geometry" />
        </mxCell>
        <mxCell id="oL3jrjro8VqfyhITFRKU-290" value="" style="rounded=1;whiteSpace=wrap;html=1;" parent="1" vertex="1">
          <mxGeometry x="-403" y="4990" width="243" height="100" as="geometry" />
        </mxCell>
        <mxCell id="oL3jrjro8VqfyhITFRKU-291" value="" style="rounded=1;whiteSpace=wrap;html=1;" parent="1" vertex="1">
          <mxGeometry x="-403" y="5090" width="243" height="100" as="geometry" />
        </mxCell>
        <mxCell id="oL3jrjro8VqfyhITFRKU-292" value="&lt;b&gt;&lt;font style=&quot;font-size: 18px;&quot;&gt;0001&lt;/font&gt;&lt;/b&gt;" style="rounded=1;whiteSpace=wrap;html=1;fillColor=#ffe6cc;strokeColor=#d79b00;" parent="1" vertex="1">
          <mxGeometry x="-400" y="4890" width="127" height="100" as="geometry" />
        </mxCell>
        <mxCell id="oL3jrjro8VqfyhITFRKU-293" value="&lt;b&gt;&lt;font style=&quot;font-size: 18px;&quot;&gt;1&lt;/font&gt;&lt;/b&gt;" style="rounded=1;whiteSpace=wrap;html=1;fillColor=#ffe6cc;strokeColor=#d79b00;" parent="1" vertex="1">
          <mxGeometry x="-161.5" y="4890" width="113" height="100" as="geometry" />
        </mxCell>
        <mxCell id="oL3jrjro8VqfyhITFRKU-294" value="&lt;b&gt;&lt;font style=&quot;font-size: 18px;&quot;&gt;0002&lt;/font&gt;&lt;/b&gt;" style="rounded=1;whiteSpace=wrap;html=1;fillColor=#ffe6cc;strokeColor=#d79b00;" parent="1" vertex="1">
          <mxGeometry x="-401.5" y="4990" width="127" height="100" as="geometry" />
        </mxCell>
        <mxCell id="oL3jrjro8VqfyhITFRKU-295" value="&lt;b&gt;&lt;font style=&quot;font-size: 18px;&quot;&gt;2&lt;/font&gt;&lt;/b&gt;" style="rounded=1;whiteSpace=wrap;html=1;fillColor=#ffe6cc;strokeColor=#d79b00;" parent="1" vertex="1">
          <mxGeometry x="-163" y="4990" width="113" height="100" as="geometry" />
        </mxCell>
        <mxCell id="oL3jrjro8VqfyhITFRKU-296" style="edgeStyle=orthogonalEdgeStyle;rounded=0;orthogonalLoop=1;jettySize=auto;html=1;exitX=0.5;exitY=1;exitDx=0;exitDy=0;entryX=0;entryY=0.5;entryDx=0;entryDy=0;" parent="1" source="oL3jrjro8VqfyhITFRKU-297" target="oL3jrjro8VqfyhITFRKU-299" edge="1">
          <mxGeometry relative="1" as="geometry">
            <Array as="points">
              <mxPoint x="-338" y="5250" />
              <mxPoint x="130" y="5250" />
              <mxPoint x="130" y="4950" />
            </Array>
          </mxGeometry>
        </mxCell>
        <mxCell id="oL3jrjro8VqfyhITFRKU-297" value="&lt;b&gt;&lt;font style=&quot;font-size: 18px;&quot;&gt;00003&lt;/font&gt;&lt;/b&gt;" style="rounded=1;whiteSpace=wrap;html=1;fillColor=#ffe6cc;strokeColor=#d79b00;" parent="1" vertex="1">
          <mxGeometry x="-401.5" y="5090" width="127" height="100" as="geometry" />
        </mxCell>
        <mxCell id="oL3jrjro8VqfyhITFRKU-298" value="&lt;b&gt;&lt;font style=&quot;font-size: 18px;&quot;&gt;3&lt;/font&gt;&lt;/b&gt;" style="rounded=1;whiteSpace=wrap;html=1;fillColor=#ffe6cc;strokeColor=#d79b00;" parent="1" vertex="1">
          <mxGeometry x="-163" y="5090" width="113" height="100" as="geometry" />
        </mxCell>
        <mxCell id="oL3jrjro8VqfyhITFRKU-299" value="" style="rounded=1;whiteSpace=wrap;html=1;" parent="1" vertex="1">
          <mxGeometry x="190" y="4900" width="240" height="100" as="geometry" />
        </mxCell>
        <mxCell id="oL3jrjro8VqfyhITFRKU-300" value="" style="rounded=1;whiteSpace=wrap;html=1;" parent="1" vertex="1">
          <mxGeometry x="190" y="5000" width="240" height="100" as="geometry" />
        </mxCell>
        <mxCell id="oL3jrjro8VqfyhITFRKU-301" value="" style="rounded=1;whiteSpace=wrap;html=1;" parent="1" vertex="1">
          <mxGeometry x="190" y="5100" width="240" height="100" as="geometry" />
        </mxCell>
        <mxCell id="oL3jrjro8VqfyhITFRKU-302" value="&lt;b&gt;&lt;font style=&quot;font-size: 18px;&quot;&gt;0004&lt;/font&gt;&lt;/b&gt;" style="rounded=1;whiteSpace=wrap;html=1;fillColor=#ffe6cc;strokeColor=#d79b00;" parent="1" vertex="1">
          <mxGeometry x="193" y="4900" width="127" height="100" as="geometry" />
        </mxCell>
        <mxCell id="oL3jrjro8VqfyhITFRKU-303" value="&lt;b&gt;&lt;font style=&quot;font-size: 18px;&quot;&gt;iphone13&lt;/font&gt;&lt;/b&gt;" style="rounded=1;whiteSpace=wrap;html=1;fillColor=#ffe6cc;strokeColor=#d79b00;" parent="1" vertex="1">
          <mxGeometry x="320" y="4900" width="113" height="100" as="geometry" />
        </mxCell>
        <mxCell id="oL3jrjro8VqfyhITFRKU-304" value="&lt;b&gt;&lt;font style=&quot;font-size: 18px;&quot;&gt;0005&lt;/font&gt;&lt;/b&gt;" style="rounded=1;whiteSpace=wrap;html=1;fillColor=#ffe6cc;strokeColor=#d79b00;" parent="1" vertex="1">
          <mxGeometry x="191.5" y="5000" width="127" height="100" as="geometry" />
        </mxCell>
        <mxCell id="oL3jrjro8VqfyhITFRKU-305" value="&lt;b&gt;&lt;font style=&quot;font-size: 18px;&quot;&gt;ipad8&lt;/font&gt;&lt;/b&gt;" style="rounded=1;whiteSpace=wrap;html=1;fillColor=#ffe6cc;strokeColor=#d79b00;" parent="1" vertex="1">
          <mxGeometry x="318.5" y="5000" width="113" height="100" as="geometry" />
        </mxCell>
        <mxCell id="oL3jrjro8VqfyhITFRKU-306" value="&lt;b&gt;&lt;font style=&quot;font-size: 18px;&quot;&gt;0006&lt;/font&gt;&lt;/b&gt;" style="rounded=1;whiteSpace=wrap;html=1;fillColor=#ffe6cc;strokeColor=#d79b00;" parent="1" vertex="1">
          <mxGeometry x="191.5" y="5100" width="127" height="100" as="geometry" />
        </mxCell>
        <mxCell id="oL3jrjro8VqfyhITFRKU-307" value="&lt;b&gt;&lt;font style=&quot;font-size: 18px;&quot;&gt;mac book&lt;/font&gt;&lt;/b&gt;" style="rounded=1;whiteSpace=wrap;html=1;fillColor=#ffe6cc;strokeColor=#d79b00;" parent="1" vertex="1">
          <mxGeometry x="318.5" y="5100" width="113" height="100" as="geometry" />
        </mxCell>
        <mxCell id="oL3jrjro8VqfyhITFRKU-308" value="" style="rounded=1;whiteSpace=wrap;html=1;" parent="1" vertex="1">
          <mxGeometry x="760" y="4900" width="240" height="100" as="geometry" />
        </mxCell>
        <mxCell id="oL3jrjro8VqfyhITFRKU-309" value="" style="rounded=1;whiteSpace=wrap;html=1;" parent="1" vertex="1">
          <mxGeometry x="760" y="5000" width="240" height="100" as="geometry" />
        </mxCell>
        <mxCell id="oL3jrjro8VqfyhITFRKU-310" value="" style="rounded=1;whiteSpace=wrap;html=1;" parent="1" vertex="1">
          <mxGeometry x="760" y="5100" width="240" height="100" as="geometry" />
        </mxCell>
        <mxCell id="oL3jrjro8VqfyhITFRKU-311" value="&lt;b&gt;&lt;font style=&quot;font-size: 18px;&quot;&gt;0007&lt;/font&gt;&lt;/b&gt;" style="rounded=1;whiteSpace=wrap;html=1;fillColor=#ffe6cc;strokeColor=#d79b00;" parent="1" vertex="1">
          <mxGeometry x="763" y="4900" width="127" height="100" as="geometry" />
        </mxCell>
        <mxCell id="oL3jrjro8VqfyhITFRKU-312" value="&lt;b&gt;&lt;font style=&quot;font-size: 18px;&quot;&gt;ps5&lt;/font&gt;&lt;/b&gt;" style="rounded=1;whiteSpace=wrap;html=1;fillColor=#ffe6cc;strokeColor=#d79b00;" parent="1" vertex="1">
          <mxGeometry x="890" y="4900" width="113" height="100" as="geometry" />
        </mxCell>
        <mxCell id="oL3jrjro8VqfyhITFRKU-313" value="&lt;b&gt;&lt;font style=&quot;font-size: 18px;&quot;&gt;0008&lt;/font&gt;&lt;/b&gt;" style="rounded=1;whiteSpace=wrap;html=1;fillColor=#ffe6cc;strokeColor=#d79b00;" parent="1" vertex="1">
          <mxGeometry x="761.5" y="5000" width="127" height="100" as="geometry" />
        </mxCell>
        <mxCell id="oL3jrjro8VqfyhITFRKU-314" value="&lt;b&gt;&lt;font style=&quot;font-size: 18px;&quot;&gt;grape&lt;br&gt;&lt;/font&gt;&lt;/b&gt;" style="rounded=1;whiteSpace=wrap;html=1;fillColor=#ffe6cc;strokeColor=#d79b00;" parent="1" vertex="1">
          <mxGeometry x="888.5" y="5000" width="113" height="100" as="geometry" />
        </mxCell>
        <mxCell id="oL3jrjro8VqfyhITFRKU-315" value="&lt;b&gt;&lt;font style=&quot;font-size: 18px;&quot;&gt;0009&lt;/font&gt;&lt;/b&gt;" style="rounded=1;whiteSpace=wrap;html=1;fillColor=#ffe6cc;strokeColor=#d79b00;" parent="1" vertex="1">
          <mxGeometry x="761.5" y="5100" width="127" height="100" as="geometry" />
        </mxCell>
        <mxCell id="oL3jrjro8VqfyhITFRKU-316" value="&lt;b&gt;&lt;font style=&quot;font-size: 18px;&quot;&gt;watermelon&lt;/font&gt;&lt;/b&gt;" style="rounded=1;whiteSpace=wrap;html=1;fillColor=#ffe6cc;strokeColor=#d79b00;" parent="1" vertex="1">
          <mxGeometry x="888.5" y="5100" width="113" height="100" as="geometry" />
        </mxCell>
        <mxCell id="oL3jrjro8VqfyhITFRKU-317" value="" style="endArrow=classic;html=1;rounded=0;entryX=0.5;entryY=0;entryDx=0;entryDy=0;exitX=0.579;exitY=1.129;exitDx=0;exitDy=0;exitPerimeter=0;" parent="1" source="oL3jrjro8VqfyhITFRKU-327" target="oL3jrjro8VqfyhITFRKU-274" edge="1">
          <mxGeometry width="50" height="50" relative="1" as="geometry">
            <mxPoint x="290" y="4770" as="sourcePoint" />
            <mxPoint x="370" y="4750" as="targetPoint" />
          </mxGeometry>
        </mxCell>
        <mxCell id="oL3jrjro8VqfyhITFRKU-318" value="" style="endArrow=classic;html=1;rounded=0;entryX=0.489;entryY=-0.009;entryDx=0;entryDy=0;entryPerimeter=0;exitX=0.919;exitY=0.999;exitDx=0;exitDy=0;exitPerimeter=0;" parent="1" source="oL3jrjro8VqfyhITFRKU-327" target="oL3jrjro8VqfyhITFRKU-272" edge="1">
          <mxGeometry width="50" height="50" relative="1" as="geometry">
            <mxPoint x="660" y="4740" as="sourcePoint" />
            <mxPoint x="830" y="4730" as="targetPoint" />
          </mxGeometry>
        </mxCell>
        <mxCell id="oL3jrjro8VqfyhITFRKU-319" value="" style="endArrow=classic;html=1;rounded=0;entryX=0.25;entryY=1;entryDx=0;entryDy=0;exitX=0;exitY=0.75;exitDx=0;exitDy=0;" parent="1" source="oL3jrjro8VqfyhITFRKU-299" target="oL3jrjro8VqfyhITFRKU-297" edge="1">
          <mxGeometry width="50" height="50" relative="1" as="geometry">
            <mxPoint x="130" y="5300" as="sourcePoint" />
            <mxPoint x="180" y="5250" as="targetPoint" />
            <Array as="points">
              <mxPoint x="150" y="4975" />
              <mxPoint x="150" y="5320" />
              <mxPoint x="-370" y="5320" />
            </Array>
          </mxGeometry>
        </mxCell>
        <mxCell id="oL3jrjro8VqfyhITFRKU-320" value="" style="endArrow=classic;html=1;rounded=0;entryX=0.25;entryY=1;entryDx=0;entryDy=0;exitX=0;exitY=0.75;exitDx=0;exitDy=0;" parent="1" edge="1">
          <mxGeometry width="50" height="50" relative="1" as="geometry">
            <mxPoint x="768" y="4977.5" as="sourcePoint" />
            <mxPoint x="208" y="5192.5" as="targetPoint" />
            <Array as="points">
              <mxPoint x="728" y="4977.5" />
              <mxPoint x="728" y="5322.5" />
              <mxPoint x="208" y="5322.5" />
            </Array>
          </mxGeometry>
        </mxCell>
        <mxCell id="oL3jrjro8VqfyhITFRKU-321" style="edgeStyle=orthogonalEdgeStyle;rounded=0;orthogonalLoop=1;jettySize=auto;html=1;exitX=0.5;exitY=1;exitDx=0;exitDy=0;entryX=0;entryY=0.5;entryDx=0;entryDy=0;" parent="1" edge="1">
          <mxGeometry relative="1" as="geometry">
            <mxPoint x="240" y="5200" as="sourcePoint" />
            <mxPoint x="768" y="4960" as="targetPoint" />
            <Array as="points">
              <mxPoint x="240" y="5260" />
              <mxPoint x="708" y="5260" />
              <mxPoint x="708" y="4960" />
            </Array>
          </mxGeometry>
        </mxCell>
        <mxCell id="oL3jrjro8VqfyhITFRKU-322" value="&lt;b&gt;&lt;font style=&quot;font-size: 18px;&quot;&gt;联合索引的B+Tree结构图&lt;/font&gt;&lt;/b&gt;" style="text;html=1;strokeColor=none;fillColor=none;align=center;verticalAlign=middle;whiteSpace=wrap;rounded=0;" parent="1" vertex="1">
          <mxGeometry x="-394.5" y="4270" width="233" height="30" as="geometry" />
        </mxCell>
        <mxCell id="oL3jrjro8VqfyhITFRKU-323" value="" style="rounded=1;whiteSpace=wrap;html=1;fillColor=#d5e8d4;strokeColor=#82b366;" parent="1" vertex="1">
          <mxGeometry x="110" y="4380" width="940" height="70" as="geometry" />
        </mxCell>
        <mxCell id="oL3jrjro8VqfyhITFRKU-324" value="&lt;b&gt;&lt;font style=&quot;font-size: 18px;&quot;&gt;apple&lt;/font&gt;&lt;/b&gt;" style="rounded=1;whiteSpace=wrap;html=1;fillColor=#ffe6cc;strokeColor=#d79b00;" parent="1" vertex="1">
          <mxGeometry x="110" y="4380" width="150" height="70" as="geometry" />
        </mxCell>
        <mxCell id="oL3jrjro8VqfyhITFRKU-325" value="&lt;b&gt;&lt;font style=&quot;font-size: 18px;&quot;&gt;...&lt;/font&gt;&lt;/b&gt;" style="rounded=1;whiteSpace=wrap;html=1;fillColor=#ffe6cc;strokeColor=#d79b00;" parent="1" vertex="1">
          <mxGeometry x="460" y="4380" width="150" height="70" as="geometry" />
        </mxCell>
        <mxCell id="oL3jrjro8VqfyhITFRKU-326" value="&lt;b&gt;&lt;font style=&quot;font-size: 18px;&quot;&gt;...&lt;/font&gt;&lt;/b&gt;" style="rounded=1;whiteSpace=wrap;html=1;fillColor=#ffe6cc;strokeColor=#d79b00;" parent="1" vertex="1">
          <mxGeometry x="780" y="4380" width="130" height="70" as="geometry" />
        </mxCell>
        <mxCell id="oL3jrjro8VqfyhITFRKU-327" value="" style="rounded=1;whiteSpace=wrap;html=1;fillColor=#d5e8d4;strokeColor=#82b366;" parent="1" vertex="1">
          <mxGeometry x="-200" y="4670" width="820" height="70" as="geometry" />
        </mxCell>
        <mxCell id="oL3jrjro8VqfyhITFRKU-328" value="&lt;b&gt;&lt;font style=&quot;font-size: 18px;&quot;&gt;apple&lt;/font&gt;&lt;/b&gt;" style="rounded=1;whiteSpace=wrap;html=1;fillColor=#ffe6cc;strokeColor=#d79b00;" parent="1" vertex="1">
          <mxGeometry x="-200" y="4670" width="150" height="70" as="geometry" />
        </mxCell>
        <mxCell id="oL3jrjro8VqfyhITFRKU-329" value="&lt;span style=&quot;font-size: 18px;&quot;&gt;&lt;b&gt;iphone13&lt;/b&gt;&lt;/span&gt;" style="rounded=1;whiteSpace=wrap;html=1;fillColor=#ffe6cc;strokeColor=#d79b00;" parent="1" vertex="1">
          <mxGeometry x="70" y="4670" width="150" height="70" as="geometry" />
        </mxCell>
        <mxCell id="oL3jrjro8VqfyhITFRKU-330" value="&lt;b&gt;&lt;font style=&quot;font-size: 18px;&quot;&gt;ps5&lt;/font&gt;&lt;/b&gt;" style="rounded=1;whiteSpace=wrap;html=1;fillColor=#ffe6cc;strokeColor=#d79b00;" parent="1" vertex="1">
          <mxGeometry x="332.5" y="4670" width="147.5" height="70" as="geometry" />
        </mxCell>
        <mxCell id="oL3jrjro8VqfyhITFRKU-332" value="&lt;b&gt;&lt;font style=&quot;font-size: 18px;&quot;&gt;apple&lt;/font&gt;&lt;/b&gt;" style="rounded=1;whiteSpace=wrap;html=1;fillColor=#ffe6cc;strokeColor=#d79b00;" parent="1" vertex="1">
          <mxGeometry x="-274.5" y="4890" width="113" height="100" as="geometry" />
        </mxCell>
        <mxCell id="oL3jrjro8VqfyhITFRKU-333" value="&lt;b&gt;&lt;font style=&quot;font-size: 18px;&quot;&gt;banana&lt;/font&gt;&lt;/b&gt;" style="rounded=1;whiteSpace=wrap;html=1;fillColor=#ffe6cc;strokeColor=#d79b00;" parent="1" vertex="1">
          <mxGeometry x="-273" y="4990" width="113" height="100" as="geometry" />
        </mxCell>
        <mxCell id="oL3jrjro8VqfyhITFRKU-334" value="&lt;b&gt;&lt;font style=&quot;font-size: 18px;&quot;&gt;orange&lt;/font&gt;&lt;/b&gt;" style="rounded=1;whiteSpace=wrap;html=1;fillColor=#ffe6cc;strokeColor=#d79b00;" parent="1" vertex="1">
          <mxGeometry x="-274.5" y="5090" width="113" height="100" as="geometry" />
        </mxCell>
        <mxCell id="oL3jrjro8VqfyhITFRKU-335" value="&lt;b&gt;&lt;font style=&quot;font-size: 18px;&quot;&gt;4&lt;/font&gt;&lt;/b&gt;" style="rounded=1;whiteSpace=wrap;html=1;fillColor=#ffe6cc;strokeColor=#d79b00;" parent="1" vertex="1">
          <mxGeometry x="431.5" y="4900" width="113" height="100" as="geometry" />
        </mxCell>
        <mxCell id="oL3jrjro8VqfyhITFRKU-336" value="&lt;b&gt;&lt;font style=&quot;font-size: 18px;&quot;&gt;4&lt;/font&gt;&lt;/b&gt;" style="rounded=1;whiteSpace=wrap;html=1;fillColor=#ffe6cc;strokeColor=#d79b00;" parent="1" vertex="1">
          <mxGeometry x="433" y="5000" width="113" height="100" as="geometry" />
        </mxCell>
        <mxCell id="oL3jrjro8VqfyhITFRKU-337" value="&lt;b&gt;&lt;font style=&quot;font-size: 18px;&quot;&gt;4&lt;/font&gt;&lt;/b&gt;" style="rounded=1;whiteSpace=wrap;html=1;fillColor=#ffe6cc;strokeColor=#d79b00;" parent="1" vertex="1">
          <mxGeometry x="431.5" y="5100" width="113" height="100" as="geometry" />
        </mxCell>
        <mxCell id="oL3jrjro8VqfyhITFRKU-338" value="&lt;b&gt;&lt;font style=&quot;font-size: 18px;&quot;&gt;7&lt;/font&gt;&lt;/b&gt;" style="rounded=1;whiteSpace=wrap;html=1;fillColor=#ffe6cc;strokeColor=#d79b00;" parent="1" vertex="1">
          <mxGeometry x="1000" y="4900" width="113" height="100" as="geometry" />
        </mxCell>
        <mxCell id="oL3jrjro8VqfyhITFRKU-339" value="&lt;b&gt;&lt;font style=&quot;font-size: 18px;&quot;&gt;7&lt;/font&gt;&lt;/b&gt;" style="rounded=1;whiteSpace=wrap;html=1;fillColor=#ffe6cc;strokeColor=#d79b00;" parent="1" vertex="1">
          <mxGeometry x="1001.5" y="5000" width="113" height="100" as="geometry" />
        </mxCell>
        <mxCell id="oL3jrjro8VqfyhITFRKU-340" value="&lt;b&gt;&lt;font style=&quot;font-size: 18px;&quot;&gt;7&lt;/font&gt;&lt;/b&gt;" style="rounded=1;whiteSpace=wrap;html=1;fillColor=#ffe6cc;strokeColor=#d79b00;" parent="1" vertex="1">
          <mxGeometry x="1000" y="5100" width="113" height="100" as="geometry" />
        </mxCell>
      </root>
    </mxGraphModel>
  </diagram>
</mxfile>
